<mxfile host="app.diagrams.net" agent="Mozilla/5.0 (X11; Linux x86_64; rv:139.0) Gecko/20100101 Firefox/139.0" version="27.1.6">
  <diagram name="Page-1" id="IQN_ok996E7gqf8uO7MM">
    <mxGraphModel dx="492" dy="393" grid="1" gridSize="10" guides="1" tooltips="1" connect="1" arrows="1" fold="1" page="1" pageScale="1" pageWidth="850" pageHeight="1100" math="0" shadow="0">
      <root>
        <mxCell id="0" />
        <mxCell id="1" parent="0" />
        <mxCell id="8xMMQV7CRU2Fi8QRk28g-109" value="" style="rounded=0;whiteSpace=wrap;html=1;strokeColor=none;fillColor=none;" vertex="1" parent="1">
          <mxGeometry x="20" y="20" width="480" height="320" as="geometry" />
        </mxCell>
        <mxCell id="8xMMQV7CRU2Fi8QRk28g-92" value="" style="ellipse;whiteSpace=wrap;html=1;fillColor=#d5e8d4;strokeColor=#82b366;" vertex="1" parent="1">
          <mxGeometry x="382" y="138" width="46" height="46" as="geometry" />
        </mxCell>
        <mxCell id="8xMMQV7CRU2Fi8QRk28g-93" value="" style="ellipse;whiteSpace=wrap;html=1;fillColor=#dae8fc;strokeColor=#6c8ebf;" vertex="1" parent="1">
          <mxGeometry x="445" y="145" width="23" height="23" as="geometry" />
        </mxCell>
        <mxCell id="8xMMQV7CRU2Fi8QRk28g-94" value="" style="ellipse;whiteSpace=wrap;html=1;fillColor=#f8cecc;strokeColor=#b85450;" vertex="1" parent="1">
          <mxGeometry x="435" y="199" width="30" height="30" as="geometry" />
        </mxCell>
        <mxCell id="8xMMQV7CRU2Fi8QRk28g-91" value="" style="ellipse;whiteSpace=wrap;html=1;fillColor=#f8cecc;strokeColor=#b85450;" vertex="1" parent="1">
          <mxGeometry x="265" y="199" width="30" height="30" as="geometry" />
        </mxCell>
        <mxCell id="8xMMQV7CRU2Fi8QRk28g-90" value="" style="ellipse;whiteSpace=wrap;html=1;fillColor=#dae8fc;strokeColor=#6c8ebf;" vertex="1" parent="1">
          <mxGeometry x="275" y="145" width="23" height="23" as="geometry" />
        </mxCell>
        <mxCell id="8xMMQV7CRU2Fi8QRk28g-89" value="" style="ellipse;whiteSpace=wrap;html=1;fillColor=#d5e8d4;strokeColor=#82b366;" vertex="1" parent="1">
          <mxGeometry x="212" y="138" width="46" height="46" as="geometry" />
        </mxCell>
        <mxCell id="8xMMQV7CRU2Fi8QRk28g-18" value="BBV" style="rounded=0;whiteSpace=wrap;html=1;" vertex="1" parent="1">
          <mxGeometry x="390" y="80" width="30" height="40" as="geometry" />
        </mxCell>
        <mxCell id="8xMMQV7CRU2Fi8QRk28g-17" value="BBV" style="rounded=0;whiteSpace=wrap;html=1;" vertex="1" parent="1">
          <mxGeometry x="380" y="75" width="30" height="40" as="geometry" />
        </mxCell>
        <mxCell id="8xMMQV7CRU2Fi8QRk28g-2" value="" style="endArrow=none;html=1;rounded=0;" edge="1" parent="1">
          <mxGeometry width="50" height="50" relative="1" as="geometry">
            <mxPoint x="40" y="40" as="sourcePoint" />
            <mxPoint x="480" y="40" as="targetPoint" />
          </mxGeometry>
        </mxCell>
        <mxCell id="8xMMQV7CRU2Fi8QRk28g-3" value="" style="endArrow=none;html=1;rounded=0;" edge="1" parent="1">
          <mxGeometry width="50" height="50" relative="1" as="geometry">
            <mxPoint x="40" y="60" as="sourcePoint" />
            <mxPoint x="480" y="60" as="targetPoint" />
          </mxGeometry>
        </mxCell>
        <mxCell id="8xMMQV7CRU2Fi8QRk28g-4" value="" style="endArrow=none;html=1;rounded=0;" edge="1" parent="1">
          <mxGeometry width="50" height="50" relative="1" as="geometry">
            <mxPoint x="40" y="40" as="sourcePoint" />
            <mxPoint x="40" y="60" as="targetPoint" />
          </mxGeometry>
        </mxCell>
        <mxCell id="8xMMQV7CRU2Fi8QRk28g-5" value="" style="endArrow=none;html=1;rounded=0;" edge="1" parent="1">
          <mxGeometry width="50" height="50" relative="1" as="geometry">
            <mxPoint x="120" y="40" as="sourcePoint" />
            <mxPoint x="120" y="60" as="targetPoint" />
          </mxGeometry>
        </mxCell>
        <mxCell id="8xMMQV7CRU2Fi8QRk28g-6" value="" style="endArrow=none;html=1;rounded=0;" edge="1" parent="1">
          <mxGeometry width="50" height="50" relative="1" as="geometry">
            <mxPoint x="200" y="40" as="sourcePoint" />
            <mxPoint x="200" y="60" as="targetPoint" />
          </mxGeometry>
        </mxCell>
        <mxCell id="8xMMQV7CRU2Fi8QRk28g-7" value="" style="endArrow=none;html=1;rounded=0;" edge="1" parent="1">
          <mxGeometry width="50" height="50" relative="1" as="geometry">
            <mxPoint x="280" y="40" as="sourcePoint" />
            <mxPoint x="280" y="60" as="targetPoint" />
          </mxGeometry>
        </mxCell>
        <mxCell id="8xMMQV7CRU2Fi8QRk28g-8" value="" style="endArrow=none;html=1;rounded=0;" edge="1" parent="1">
          <mxGeometry width="50" height="50" relative="1" as="geometry">
            <mxPoint x="360" y="40" as="sourcePoint" />
            <mxPoint x="360" y="60" as="targetPoint" />
          </mxGeometry>
        </mxCell>
        <mxCell id="8xMMQV7CRU2Fi8QRk28g-9" value="" style="endArrow=none;html=1;rounded=0;" edge="1" parent="1">
          <mxGeometry width="50" height="50" relative="1" as="geometry">
            <mxPoint x="440" y="40" as="sourcePoint" />
            <mxPoint x="440" y="60" as="targetPoint" />
          </mxGeometry>
        </mxCell>
        <mxCell id="8xMMQV7CRU2Fi8QRk28g-10" value="" style="endArrow=none;dashed=1;html=1;dashPattern=1 3;strokeWidth=2;rounded=0;" edge="1" parent="1">
          <mxGeometry width="50" height="50" relative="1" as="geometry">
            <mxPoint x="450" y="50" as="sourcePoint" />
            <mxPoint x="470" y="50" as="targetPoint" />
          </mxGeometry>
        </mxCell>
        <mxCell id="8xMMQV7CRU2Fi8QRk28g-11" value="" style="endArrow=classic;startArrow=classic;html=1;rounded=0;" edge="1" parent="1">
          <mxGeometry width="50" height="50" relative="1" as="geometry">
            <mxPoint x="40" y="70" as="sourcePoint" />
            <mxPoint x="120" y="70" as="targetPoint" />
          </mxGeometry>
        </mxCell>
        <mxCell id="8xMMQV7CRU2Fi8QRk28g-12" value="Interval Size" style="text;html=1;align=center;verticalAlign=middle;whiteSpace=wrap;rounded=0;" vertex="1" parent="1">
          <mxGeometry x="40" y="80" width="80" height="20" as="geometry" />
        </mxCell>
        <mxCell id="8xMMQV7CRU2Fi8QRk28g-13" value="" style="shape=flexArrow;endArrow=classic;html=1;rounded=0;" edge="1" parent="1">
          <mxGeometry width="50" height="50" relative="1" as="geometry">
            <mxPoint x="320" y="70" as="sourcePoint" />
            <mxPoint x="360" y="90" as="targetPoint" />
            <Array as="points">
              <mxPoint x="320" y="90" />
            </Array>
          </mxGeometry>
        </mxCell>
        <mxCell id="8xMMQV7CRU2Fi8QRk28g-16" value="BBV" style="rounded=0;whiteSpace=wrap;html=1;fillColor=default;" vertex="1" parent="1">
          <mxGeometry x="370" y="70" width="30" height="40" as="geometry" />
        </mxCell>
        <mxCell id="8xMMQV7CRU2Fi8QRk28g-20" value="" style="shape=image;verticalLabelPosition=bottom;labelBackgroundColor=default;verticalAlign=top;aspect=fixed;imageAspect=0;image=data:image/png,iVBORw0KGgoAAAANSUhEUgAAAHkAAABoCAYAAADVcF93AAAAAXNSR0IB2cksfwAAAARnQU1BAACxjwv8YQUAAAAgY0hSTQAAeiYAAICEAAD6AAAAgOgAAHUwAADqYAAAOpgAABdwnLpRPAAAAAlwSFlzAAALEwAACxMBAJqcGAAAAAd0SU1FB+kGFgofHj1vqyIAACAASURBVHja7J13mJ1XeeB/53z11pm5d/qMpmnUi1UtuXdsyzb22saG0GwIiQmBENYbQkLxAgECpEAom7AUgwvVjo0bclGxLEuyJEtWr6PR9F5u/do5+8eYJJsENtmQWBi9z3OfufePud/7vb/vtLddg9eJPPrjL9x3/i3X/s8n3ZM9nLuyn90nfc4KAMbr5Ua6/advftzbcWUs5v7Wymx8dveCubDr5MGziEG+Hm7inpupfEVQNdyVw80VGZnquX1u4ti37/z0miNnEYP5eriJzYe5OlnFupWt5/O2Gy6hsa6KdDXJY698rfHbZxn/+o/kl376aXFkUSY92AfnX7aWjtZKqmsTVKZM7Jh5lvDrAfJo/+7Y25d0/h0pqK1O4SYtKtIGQVQikVluve/vfnrJ2en611w+8oWHmKyd2ULWZlMYhkUx8CmEYLmNTv/w8F3AprOQf41lzyIgAcg0yaRHyfeITAspXIpaIocfPbvx+nVQ8n3futuqiMsvzs4ERMUco5N9JJwEXUd+zI8exOy7CBoyy0lYBhqNRKKFRaChIvHIWci/Dko27Pphe9Vb3v2Blto4FY6LH7Yjhc05S+ewe8fD3HnpfHomJa4dx4+KqMAiMCLCCOzM2Y3Xr8XG68WBwa/WV1j4UQQ6hqMzRAWb/PAUiU6DriMTZIMMigAQCClIWC7ZeJJU5Zz5H//xhgVnR/IZLpvqzmXZjhf46ctHuXnFudTE0wRFHy+aZHH7HISepqFKY5oGQRSQ930sYVIKBWWzbtnRnoHlwKGzkM9guSJV4ntf30J61mKW/NYqapMmjhUjVB5+kGfvod0EMsJQCh0oTMMmCiKktBicNCmOvXL+I9sP/OjGNYuCs9P1GSrVaZdCewWirpf//fUf0Dd+mnJYJFAeeX+aaS2J3AS5cpG8X2IiP81UMQ8ioiI9xfiBp973Fx//I/c3dSSf8QGKL/4RTSdKg3fmZ1uNc6unOTnax8kTAfNnVxGUpjl2/Chbd/49Y4Vetm98kp6pUUQ8gW1rSlGZ/f29PPvQLlasvWPZ4R3P3X8W8hko8wLetXFAvGvZ6kWUC/10B7Cnu4/cfp9khcXwuEFdfDkXrFzIQFeKHiJKuX0Uy33s6D7F3gdPM3a0gKn39Q/3FL9zdk0+A+U7O8C/ZS650iRH+2H8hMkFVedw2ZUXccGqC5nVUI1jSUzDwp1azwuHB7jyfMl3vvFtnpws4ozArDcnuPX8jtV3/9nTd9xx6bLvnIV8hkkOMJImxeOHOLUerr5+Be+86W0sbJ5NOpkg4bpYpkRrmJ4sEE/NY8XCuWQ/lCDz1ad52HuZt195LY3xjviW3buz/xk63vbGqjvWzp6VFuNHqGl9FzWZFMXcCLFkJXaQozS+A2U14BgJhOWgghL5qS34pQKRP49c4Rj3/6BwcAs88xsH+bdBfBuMWaamZxTOWQTH9pzi8bbtNKYbcC2TUlljJmIIJQhK21l57vuwTJv2WZfz4T9ZgvOdzzAxNkab62CN/ORXpttn3ofVtuyzKw4+/LNP9b6y88LKxY2x2YvnkqrMkqjMoIIUCBPpJwjjyykVc9h2FWYsRljME6YuJgwi0BVMjCZJ0NUPF98GD75wxu2u65oarr/nc5+8Zf1zz177q1buFLTPTvIXabOAeTBBKZdkes0wD62/n9/52p/y6LObOdE3QKEcUCyMc/pEmXPm1ICWSGGRqqznPe/4HZY1hzyw6VFCL7vkcz94Nvkf0enhb3/+EuCWrn1s/NxdH9n2pSc2XhU5IlaTqqK2poPqTJaYZRK3HOKGj6mLaK+MLX3cuI1jSBLJFBVVbVRWtZCwDYQ+zCv0NcJLb4TbxRm38froRz70fHHk8J1PPPnMTWuuXDDnptvvuumP/+D3Zt3/wPd3/Ee/+yRUjc3hD7zWSXJDAflmnzWN4NdAIMfYvWc3L23somNuByI/xOFcNRev7kToiCAqozUo7aEsm4rQ5vgxtSz0gsqdm1544t+ry31//YeNtmV9ueuZ7R/pHBh+V0eSWWti8MokXPoGaMtkSLsZhJZEOkD5OfzpPlRpkigoYNhJbCeDijRCmjO6eSVK+TwDQyf41u4SYF4AI5+GSXVGTddXXnbRwh99c5N88YUX+d59969D8d69L7/QceebWq92m1avzKTbzNL4y+9/8MlTp973/j/QH/3gB/5d8M0E5DZDVAXzDZeWzFw6CZjypxmqmmD/wHbu+uh+5rXCRSvez8M/+ym5sEQUlihMbmJ3b5H9OwsE0wrhxAl2nvjd7Nvfb915/vl3f/G9b5n+Zde+/2/u7jy9bf/lcmLk0098+kvm8mqjqnGRy+wbbidmR/z43oepcCNaUxFGaZwwPwSBhzQFUjgYWIRhiaiUR5pxdBgiLYjKPoYhQWncWCVK2QBkKoZZfP3H79t8/yfffEZBXn3eVWM/f3/1NW+6F7j3559PHH/qQ/t3bok/8ch351y09vK3tddVXfuJD9/x2X0njrNq9dXMX7AEJ1H1leuuuGToX/3y2VCfhQJQ6k0zf9351GYbybpJAiLaykPMaeqBc01ObB/kz77054QLNLOX1dGSqmJWopLZ8xeTmXWaPCbViTlMDR0yTh5++T3fOzAhgPf8a5f9+B24hQn+dOjI3pv16PaFzRmDxVcqElJh13ZSVd1Ebvhl1p9UdMyHdMzFdSogLOOXdqGESTy1HGFZmFYS7dZjuRl0GKFlCAjQJiosoqMkljOzaq7OwGhXseLXauM1u3PBX/78fdeRj1T39nY3H33187nnLHpg19Yfpp4+sPHCj//lX1Yaxf6P7Tnw6J5FS99GZ3ML1TV1Uz9467ov/aTOwPdCaqMUbY3tVFdmUVERISR1FfNpNxfja8WcximWrT7C5m1bGS0J5tTOIe3axKwEkd1CRTKFaRqYzYswk2M05gbvLL4jUXh6vPAnPEbxdqg47/3nLMjnT399VuOVRuWcxJKE5ZLtbMEKCkS5XrzxI9g181BhgQ3PnmAwoVk3G0RQQpW7ZwAqG0yFCoroIEAIgeWYSD1NFIboUIIy8aMpwjCOtl3cijays+IFv679fyxZVbF+19ZfLQfBayybnnk0OzLU+2cP/vjPqWuZ07Fg3rVXDfUcZNcrgw8/s3H92orWiobR4igN19Zz07nXMqd2Fq7UFFWJYugTd2JUV6RJO3GkLqMizcDwKR7Z/RLKPwZqHhVZSX3NXOqztUxFIb6Xp1QsMdR3mhd27//mm+rWfCp7fOSbC9euvmJ2ewMy9IiHAtsyMcIQ7RcoTx2nNDlAuuUCxrpP8N+/+xR9PrzvUmirg6wdI2GD4a7AciIsuwnTdWZGq18Cw4VoilAbCFGFsgwCpcnnxhjM9fP7Xy5/e4yud70uj1CXXPnGMeAugIN7v99w6vihlY/f/wBPvVACWDl6cBQETKyf5Im+Z7nooipqqhZTn63Gtk2SrkvSiuOaDqahMUyTyqrFzJ89n/HxXvYcHmZ4cDtPbn6ObIdBZ3WCqorzqM7UYBOy3O9694Nffn7pW65csjoeC1FeRCJeSdz20RpQZbzRHRTHjmKlWwj9ErtP7WJkBKwqSFhZbNPDii/EsgLMKEKIOIZtglAIQxMGRSSSIJrA80/jR/OYLPVwcIOPN38htZ3Nd88i9cwYXf8pNn7NR/Ivk4p31+6f2jm8qMqtoaa9AuM4oEPCoMTY2BjjIuTiK5eyrH0R1U1VLFpYBXYMy4mRdC0QAkNrpJJMjp7iofseZdOWafJzBllUvYB0QxvpbA/Pf/0A/V2a269q46al7TRUzqEqVYFUPjr0KA9uIPInMBKzEbKR//V3P+GBPrgpAxdcCTVVLpWZNaQsiW3EkY6FiY0S0/g4hKHE8w4wNCCYdENe+PrJJ74ZagW8Gxj+jfZ4zU+fy/aux1h0+0LWXXMxCdfAi3KgyxTGxzh1YBq/mGfrjgfZ+Qosm1VPoqKGzNIYF6xpo7VhKQ01FVSmUsSdNm69tQk3FrDlZZ7ZcPJQC86huY3z6ll8rSB+uoLHjg8Q9AbcdplLVUUVhpMgKoORnoNQCZx4mvGebeztg3YgY4BtgbZBWCZGshYrlsUQPuViEV9mCaM845Ov8Pheg6aWjhe7+px7E//jlm/w2c+r/yo7nrGQ71jFR3rz++ZaHQ7NSyvIJF3cWJxAC0oqRk1dMytWJki6Boa+mdHhCSZGRxkb3MuPv3+K+57tRfEMjVc3sK79MlpaK7BEBRuH+8nE2csU727yqzaHR0qtqTnX0pYcIj1rL/t39rHlvgm+eCfMb2zGSaSRTh1Bbpjc8H6Gjh1iF7A2DlVtgGVjmS0IA7QhKZZylFSBUilPye/r3fngidGecvFHO8zEd9+67kOFb3zwron/aluesdP17Nv5XE83H26bO5/b1l3P/OYmEnGXkjeBMGOkYyaJhINjGDimROuIiBB0RBgqStOTjI8e5OjuPIf2j3Hi9HaCIOLAAJSO84Jt8tSKWSzdJngTnbB83jxuWtzIUxsOcqp3CHsKPrK6juUL34BQA0z0baY86fPiU/CdIXjrBTAnC/HqVhrrq/AKvUxPlDnUleKIEKyuH/zcxh+qRx6Dba+1Lc9YyAv/hM/1/yT+4ev/8CbObZ5LpjpNOpFAEJCKx3FMiZQQaR8hwZaCSIMpFV5YwjVNLOliCovI8xga6uH40UEe/tH3OXEwx6kTkLBhogikgFmwZt0i7rr0Bp7d8AN+fKqLmuOQGqtA4iFVGa0kpbLB1fMCFs0D1wNt2WDYvLwvz4bjMDoNo0AELuCdjUL9oqn6ZmqfOsoS0ZRhSWMbDZlqzJiBa5nYtkM6lkTKiDD00Qoc00LokEhHgMA1bWw58/xapiDhpHFic6murWFq5DFIWDRVjD+5YQdDPw91dbazuuvQ6UXb6k9y+XVvpn7n99nWMsLWr0yzMKV548WVpBxFXX0d/sgxpgZg+wT0HPHZkfOpmnlOOA/YB/QDPWdDjb9YNmxnTsln3ar3LiNmmDiOSyJuknQEpVAhpYFrCJSI8CILS0rCMMSUEYYUuIaFUgFCSBwzjikNtA4JbZuWhhjLl65ErSn/+YYdz/xDZcXvL2DpNw/kLn3huz/80rMPtbLwxgx+IeLcFQWOHYHHDyrqomnmMc3mMkwOw2gAC4FlrwL2mRm+K4ClwDfOQv7F0t0HZJIsbGmiLtNAPOGSjhlEUZGEE8OWPpZh4UUhEkEU+YTaxzIErmEQqhJSzAQKDMPCEAZSWkhDUJFdzsktGzBj/3dC9ge/yCsfuZl9XzhAPIy6P9uz/TQAlddrrr06zYs/KbDn6MwCm2RmSi4Dk8DieggGZ9a+HNDQCX+R5iF2c91ZyL9s43XxImqbqkjFYwgjItQRjmWQcm0kCikUhpQoNEpDpCPiMkakIkKlsMwYBlDwcpjSRUiJabgYZiXm2DhKjf+La372ITQQAjREmlbg+fWwccClekWZxdMRhR64uhZkJwyPwMgxeHxwBrgAGoCaacjmWPx793Dxx+9h81nI/1pkaz5/5zQkqI6liMddLKeMJcCSFpY0kdJAoImMEI1GY4K2CVSIinz8KCKIPOJ2Aj/0USLCsmJY0sYr+yAg3bx4Fuz/hTpMWHBhEv721naG94/ywHOCkVG45MYlHDu4j3mVzdzcOU55gce6UsT0URgdga1F6B0Gkabls3/O14CuCxdQHbP5wtN7Z3K/77yRwrcf4fRvNOQXS8n6N62uIekkSCddHGlS8MbRYiYkJwFTWphWGk8UKAd5LGlQjEpEUZlIaaQw0SrClBah0sjQxws8hDQJUlDRvuprsP++f9UoEm5fC7ctg4qmJcg5SS7JT7LxhQGeev4IJyvgmSd6KV3dwpXtBrODXorVAa05qNsMBQF9VfDgKf4W+JvOQ1z2BFwLrAUwXa5ffQ7fHhqD97wVWmq4/5130/8bBbkmlWRhpoF0IknCFkShh2lIHMPGkCaGNBASElYSK1AEqogXBISRh9YGhjRIOJW4hkU58PC9gFJooJVCWSna6iR9Y2O/8PqWCZevMoibEYZRSSyRxk1WcsvtC7nk4nPZ9MJL3D9wgB9tOs3zryT48Js6aUofoeAq/JXQfQSScVgDbAe+AxuYec0Y3eanPz++Hn+a2752mAdXLqJ0zQr+6rPf48XlzfDWtxB96AsUXq+Q186+ocGpSyWprUgi0MTdCnQpQusQU5pY0kBKA1MahMLEEgZFpZHSxBQWlpEkYadAhaigSBRAEIRIqYnF0iRiSzh+6hdP1UJaVNWch636scwAQ4QY0kWgaGiu5C2/dQO33r6OTRsf4Ye7e/jYfSf5yG3tLGn2SVSXMFqmGZzwyUzB9r5/+f1f/x7P//z9vb0za/ZHL+SS4+v5HeAdGZfVu/ZjA3/iAm+sg9k3w/JWCMowVYScsQhlDJBxxqmsZNPt76fv1wnye69ccFGitrIBU0QEkY8pDWzTRggbrRUCE9t00VohDRvXTlIOSwSBj9IKKQxCP6DkFSiVfYSwEIaFISQCh4pkDZWTe3+pj0i67cSsTlw3gYjKRFGIMAxkCDpU2IbB5Rdey9pVIzy35whVbppEIgTTpEbtZNwfZWsl76SP7wMj/6+bft/fsolXi+XPq2fVl55jLsC1K/nktgPMPvAMPJ8AFUEgIZgnWN12Ien6JIVE2+ZPf2xjb9rY+q0P3MOzZzzkqgZobWqkKpPAtARCR4RhGcOQSMrkSwV8K45pmmgMBBaOmSZuFzENg0gZSATF0hTFckAQBUgxU8ZaCiO0BtsO8aak8eimj85/4yWfPPwvEAtwLZBaE5VLGNpHaIUqhURSo6WFNCVSGCRjKa4/dzk6ivC9YcpeSFXNxcwx+9i0d/vKJCTy/wbI/1Q+uYWdwE6AFR088vAujIuP8afPwzoNiwE4cJD98ihVmQxNK5suvmLFMk70J2+++tpNhw4d8D7Y0sLLW7aQ+/ke5oySi+9YQSZbhWXZmJhIYWEaJrYUCG3MbLiEIAh8wihC64iyX8YQMaRy0KEmVyhRDgIUCkMKoijA9wvkiyNMF8fQIqQvL+KP/2T7Q3//5N3L/rkOrXVgWwksy8YyNUKBiDwMUUKoaQxVRns5tALtFVDFCZRXwASMYADDnyAWTDJfwaX/QXt87EcUgOnN8GENNwJ/tAimCBWh72NaDo2zWshUt2LFG93auluWX3bF1Ztqs5mvAreccSM55fKGrF52Y21VFbYBju2QtFy0DomUBmngCPnqVA1lv4jnFSl6HkpHhKpEEJQp+xGhX8QPfYKyT9mfZixfpFQM0X5I2cvjD0f84IGNC6byvY91zK26+OTRiZM/16O9VYB0MQyNKg4hhYRwHIWD4abRCAwN2psk0gGRN4XARutJ4iJGqXyQOBN0uvADyddQrPsVmegk8IUF8PeXvYG3nXiJtz3Z083Ad7rZW7MTyzJBK+rbMyxddM4Fd7yza+HG507dcUZB7siSbqh0K0xpoHRE3EwgUQSRJggVSmvKQR4pPJSKmC5MMp2fxvdKFApdjOfH6BotoyIoioBGK0bkl8DIMVSKM3jawJgQGFWTlHLgZD269x5o6j7BU3PhK53AE3Bh1BsR5HsQVR0YVhrCEJmoQ5dyhJ6HwMGMJ0EUkaGNFsMobxQlJzCIYYZDGBHUnANtJ5k1OP2rtdOP4Rjr+QTwCZhxvfX1/KOn/FRXN9ueO0PX5L1zLuXW1rnY0gahiIIAzy8wNjnF5PQYk9MTjE/sZmK8j2f7NLb0aXMDXCcinRgHeS5uLEnMsUlJScZ0iXwHQ5ZIegMko0F2hIKJTQVyE9DkwvnnSK5equbUmnyJKTjyQ/B7Q8pjuwjjDZhaofwiwjJQQRkVRRhGFQQhCIEUBoawCLEx9ATKH8MQYJqQtGBdmrYVb+FdX/tbvnXW4wWQzDI6dIi/f/RnRCgCr4vRaZ/RQNBYIamrmIvrVOGmG7ghM4AfSvqLPhFxJi1NkQKyuIfymGBnyWVxjcXK+nNx3AxV8Rbq5sZYc7lk5IbN/PWHn+e88wWzK1eworoXoUqMDngkmcTUIPMnKU0eJR6vQAoDKTSmY6ECDx0OIEQbWmkQIZDCNDWIuZhWN1KGqGKZtAWpVpKPP8V1D36OR97yx4ydhfzYTziSqqP2iuWkElkkNiV9GCsSDE4a7BkbJkqdJoiViOihTQYMR83kvBTEYqSSNk2ZZZxTN49LklmSMefVNdzClBIpNKVyDjfRQaNzmIbOxTz91Ek6r7uEymAC1AA+L2HVgJAQhSWQ9WgRISwXKR0saRNGPWghEDoEDAzLRYc5tFGBFiZogRHNlKc0Z+AquHm8wBeBF3+jIT/3wMolDz6w65v3Pj7KjpdfYM17qlhVv5ratqvwtU8sCmg1bEIJphOBMLANRSdQEavHkWCZNo4ZoyqWJmkbKCJsw8E1LCDCkgqtAmzDZd4FgnMuvIblHU/wlb9/ht+dt5LRiaMcBZYssqmZcwcxw0GKEKlDEDZalUAYSLue0MtjGiaGFUPaNkL4hP4IhpgEownlnMQoKSriEB2E9U/+ZgcoqoAP/fjevt8aHSXtN0R4YURVajGV6XaS8SRCCOLeJL4WRFqQdl0wDNxYHNOySJgWSikM08aUJo4dxzY0hggwDZuYAUoLQhVhiIiUGwfbIBaXpOddy1Wrxnhm93bmWiUiQBVASIkQAiEtdGigghza91HlHBg2UoYIHFABSvsIbWK6deB34JcPIEywLIjVQKwKzungbY/sfG1G8mvdaaBCwgNLZ/PuK8/xq86b5TB8StN/2uPojj6srEU6E8fCIlAaP4xw3TgOBjE7Tsx2iZs2luWSdGwEmoTjoF91DGttkHZdEpaFQhFGAUr5qMDjh8f2ce78VYSRT3PLIsLSGK8c72bXfs2ynGLJ/BKOWw1BgCqNo4Miyp9CGxZC2yAtjLiDYbmoIIdSAWbMBRWiVY5IlUBDABT7YcihY+tRPv8bBXkV3NEP91TaXHvPpZWsWXYetdXLuGSRYHYQxw/zbHjuKMeL/cSsHKYbxwsLmKaFayewLQthmAitMYTEj0LiThKBJFIhUkpM0yJhuYRRQKRD/NDHkJrixD52Tk2yatbSmaOam6Spcz4j3b1sfH6YlTWwuM0nmZ2NKS10GBCUD2OY2RnvWZBHRAEq9BDaJSqNo8MCvjeKDkELjfYnQM9YOMjB1zei73ovLz6/nVO/EZCvgg8ehC+VYN6bL4XrL2jFjS9AoLDw6VyylAsXNtKe7mXwpTE2bTvN8f4BvKqTxI0kBa9MGGm8QGMYDinbxJAWgQKFxpQSw3CImxaCkHxQxjJmnHspy+ZU7w7yXjPzmlswpECrAMcwaGxpZbR3hIHYBNdc8t/IVHdiSNARaO0gMFBoRBCidARmDCFN/OIwUWmAsHycyBsk8gdBgjZBOkAlDJ/Azin03i4eeb1DlsCfnYRPd8zCWNEEb7viYhorZ2O7KUTkocIT2GSJ2Q5z6ju4YHErF9drdm0bYd/jE+zoOsxEbg+nJncypsARLgibwPNRSNBQ9DwqYmlMoZguF4gwQHsYQiBUmf2H9yPcOuqzdSTdBJaUGIZNKl3FpVctp3wox4b9+5nVPpdsLP7qem+iDYkwNIHXhXZbiPxhovAVguI+Qm8MRYDyA7DAiDfiphcj4ksoqwqGhyb4aiHcw+DrH/IfAJ8GuDQGa+bO4rxzWrFNE7SP1hKh00jlI6IcqpDHCktUVmS4YEk9jclRjP6AV56F4yciek6OMeCMUl+RpeSVZ9bdsAzCJGXa5P2QUCscyyZmakIVEkYFth45AbFq2uuaSNsmQkDB9/HCgJhrMe+8pUwc62Lj8ztYNG8uMcMAIrRXIiiPofwAKUB5fUSlUSLPRweABunOjGBtpSkHY+zZM8rXtvQzcLDIiT72wK8B5L/+baqvuIgHJn2+8Na3Ys1dxPY9u/mlJR9Jh/lJl7vKIf9zbZtt1hkRw1YFd92yispYEpRCEeE4WQQRRGA6lWgvRAa9CP8gNnGaqyVr5tdybpNPujdgaNAjt22E53fu55i/C1WSTKhphIoo+h4FfyYn2xAGgYooh2W8YJJtvS+Tqupgdm0TrukikHhBGWka2IYklaxk8eoVpNI9fP7Lm+mYXUMm5iCjgNArEnkFdHiSKMohhUkUldERKD1TuTo6Btt25rnvJ0WmpnKsXgXeQERvjD3F4pkPOd07yr1Pb+eNrTWkU4KrBp9k9GiJX9Y94LKFnTxWKnBDbSjMD61Lo14pE1Y4/LfzU6hAYdhxiKaIIgOUAENg2Anwh9HeOJI4RMdQ3jSW75KtTLJkSYyL5tWyynWxpcX0xgme23ycruFT9JWG8QyJJSDSilBFlJXC9wsE3gjHeg/RVL+K6kQSKUBrTaQFpUCjhUU2XoltGdTMms+uxx7gx9vHWLOggaQaxy9PgD9EFE2jvTxRUKZUBL80k6a7+QDs2QzdvfCGOZrVb1xM1qrk3kMjnHszew7s/K+H/G86J18P5pV38fvfeZJ3LHBZXj0bfvQiZBXUr+EzH4ihDz/HA+sn+L9SIO+8nfOVx31bdlE3VoR3rasjPzFIoQYWtBYQTAEBUclDmi5CRhD5aM8HESGkQMsCWrZh4ZOwhihM9KM0xCqWMatyNs0dMZZGeQYGJjjYt4Ondnoc2neE7lg/bevauWjNclpbWsnIJF4YYIUhdjFG2rIwRIQhYriWjSkdpOERaVAIFILxXIHUEtj3jW5+tu053r6yGh2cRusJvAD8AoQ+DA7Akd3wvA9rCzC3A+ZdliXTuRrDSfO9Rx/j1KShKs2OHBw7M49QHnx4tI8vvOlWGhY2w3gv9Blw01UZ9hz37IkpvU4avOfYGJuBXoDP/xEXJgyefHYr1RPdcO6yJO84t8i29SEn+uCiCw1mVVQgoqmZElFhIY0kxk9nFgAAGH1JREFUMhxE+SANE1U8hi4VUf4k2hcYshKkhZACqaexYguwhYkjTVJOgfpsMxecs5ArO0AfKHDiUBdbnnyZE6MjFCbzFOIRvUOvsH9/wPzF86mKxTBNB0OAlCZCz2R/BpHPZDFPT/cONm+cZlndGOdkctSaQ/iqlkJ+ioFXYPdJOLAP1u+FehvW1sLS+dC2BqrqbGy7ju6T3fz1D/sYCvT46R3jl51xHq/P/zarf/w8H57VwHXrlkMsBnsOwGABugfgpaMRN14+m7HTZXZv7ckA9wO3fu8ebGHM+t7Dj/SnoiiivsbhptUtpMQJrDK0ZqHSBfxhlAJtnsbQc9FKEKkTGMYyCHoQagK8CXRUiYyV0JGJacWQZgtCmkjLZGbHA0rbVMRiJLRBom4hFy2J0ZrKEAYG2w8dYOtTR8h3ZjEXj9FaXk3aTSKFidKKvFdGSAcFWFKSL5Up5CZ5+P4tLFwwm9oTo8ypnGZyLKRUOk3XVnhiGJqLM3nWbz8P6tsgVgmxODNnZaVQUYF9G45x8jX2OP1CyMthxcZHeOGCq7HOmwN5D3Y/AUEdWAMgi+CdmGK/N037PLjl5nqyWwY7HtzL9p1Hobyr1zpR0CRMWH1ejNU1hyjnNAdSFq2moKJ2GYbbTZQfAWEj7FqkmUaEc4jK/ahgkKg4gYogDCeRHhg22LF2tAgxY/OIVIQwDMJwCpU/jlO7BksFKAyqmgUTIsH8toWsXbGEYqAY3LaNe58Lca+BMPAoh3GStkBaMZQGPwJbwFS5wOlDO9mx5RgD1nE+cJlm8rTmyGHYdQyiGLxpTYz5Sy1cy0WFOQxdQsuZ1KFIQFTKMdG/g6+e1jMGreHfmQT0nwj53j+lYsNuPjkxyg1vuKjNStinONoFgQZ3Mcj8jDFyQN6FcEAzWQ9SD9LRAGv2Y/3vB8BAc1ENnPLh4jkxrHCSiWnw42ki28SwLVRkY7hNhMEoAgNpWii/C+WVUeEY2oMoBKlnjIcGoQy0cFF+AaHjYPhI6eBULMAIIwwZI26GJNyQ0vAAdjSbeKyeOD3oRTbXGPCSpTCkgWXYBJFGiBClBJY0KRSn8YrTPPvEDk6d1Lz5cs36LdB1BGZXwFXnwdxqSM6zMH0fwggn2Y72D6JkPXiDCAnKg6df1hQLUA8MzuUbZwTkC6Hm0Cb5/bpY9vLL1xUY6xvkYDfkJBCB8mHvLugqzXg1KhzINkPfDjgwCFt8WOxBRwy8EuwcgQsvaaAtPYWITMa3K865qJnd2/ejVQNaaoTVjB1P4KRa0eVxpBQYdhatx0CCMEHoVzUVNSiGkJgEheNIaylR+TDCaMdK1KIoQ5jHlDapmOLwnnEuWJhD61pcW+KYeUqjUGzKUSjlqa/I4EWQiScYzeeYKE9SzBfoP/QSRw8N014LL2yHSxSsvRhmtUCyGmQEIphGSJBOI0IOomUGFY4TlkG4UJyAl/tniuAqAF7g0dd8ur4Afs9u4aaYLS/vPNdg1/NFNhyGif6ZEswItvw8HipAzHW4u9IAVYKeEThWhLYUDGXhhgWw4yg0TlusbJpGBApS7QzoE8xpqmePsRdbDWDoFFZsFmZyAVIaaC8gUqDCoyh/Bq4RA4FAWHUzI0QZRCpAigJhuBvlT6H0JLZsAUODoYjKNkIP0h0o0EM4VgfaK+LoMXJDkEzn8LwSQaSQhoMpHKTOkZvKU86Psn7HDua319A6eJqLayHRDiRndIGZGUX5IGwbgUOoRogKAUEIWs8k53fnYGRkJsTWPVMn1/9aQjYvsvmjZRfxiYZa7Ol9IZ/6zqA/OkJ51Gf7zz1UwCmYqd95r4ExAXeHBnTth+NT0NQKFRHccCn0PAlGBJPVmrWdASISRJ7PpghuDgroABwjhjQG0HRipzrQpVE8fxylx1AhaAHSAmFmkGY90IfWeqazXakHFeiZdJwQNCU87wjaBJSNdk2iUpE2LfGjMtHYNrTXg8iBVODbcUIlKJY9kjGbqeI0E1NT+H7ESxv3sr1rmLUTIbPPhyIQOpDM1OOrQcoTYEZgm2D6ETLoRYsAQlASwtzM321bQRmA4gCa35ph/RpBvmYZnw3hbuXBpkfY5wfsW7iIZx/q+8U5SbWdEHNgJA99CtoaIDVq0HxVCnt8kk0+FA346E2zcY1+NCXGu7ppTGRxy4q1TWDFahEyhbAqiEpTyBCk2YiQWZS9GWkLRDmBdFeAKgMxtAwQVgUqHEWbFpZbREUlghKIaObBQPp4UzNFbXOlouwdIx3MPM4xC6xYglmt8zEMFwONigJGpqaYLpTJjfVxaGg7ZrkyWHfj6I9yffDfvzWTzrWawYohuG4xM781lm6EdENENh7R4kCmFuwKUMDpJ+CbY7B0EbtuWs61X73vtVqNX4V82XlNGJkmBg8eel9ibu75n+1hH3t++T/lj4DRBrYDrR1Q5dcx56pZtLWU+cq3J6mahprlzbSnY2irEr8c0X88pK6thmBgEiZg2hvBic8lJl0kFobpQMInKk2gKpZDINE4SCuGDkKkU49SebRSCDOGNOoQygJRwLDHiLwRwhBUCNIAy5053uSGob4KlDmT0jMpDSptl+n8CCPCJJUImJ4cww8FW158kSOnarAq45+6+xOjn/qn9/wSLFhcx3VNLZBKQsqFqAxBHgZ3wsYKOBaDxhDGRiECdh+Yeb3WYi5es/wj2nQ+NW9xe+6Lb/mB/rf80ySQNCG7APqOVHLebWuo5DQPPX6QujbwxmyuW91IfdpBFQ/hRx69IZSLxwiNZrJVNSTtOmTYT7HoIC0HQ/jYVgbDSiJpQxWKRJYGNY60K7DSTeggR1ieQttxhGETlYYJ1QiYMazYWoxwnLDQjxBFokDhhFAoZbHa5hDpw4T5SQ4JeEMsBn7EdGEK7RfI5ycYG97O7pf2U10tKOXV5D33MP+ee/iH6oq3mPxg7jy46BwwTQvbAKkC/Anw5kN7AaqOwl+9WmLlAGVYyUyh2w3wn9SJ7d8C+bo7HguBf1dm8DagdhxaD8LKtR4p/xUObehFn1J0rIDD7VnWdmYQpomw29HeSfInfcLmCJ3uxpAgoxoctwmibiwaMN0sGhMhXQwlULaDkCG2XT3Tv9oRKCmxZZLQn0ArD8w6bLuBoNhFFJxGaQMzvRRZ7iEo95CogkJQeLXpWgfesd14+YCJ4jDaqaTsFYkSFeTzp9m6+TiJOZoj39U0tPDlrTEOzj+Px6tb+OiWH+A/nyZ+42JmdBcW0tKUJgKmu+DwAGyYgK3D/EOk5lXIAIuAB4A3v1br8v9XqHEYZE+Jt2XrMJuzoTM5PcnDuxXLL4OhQ4Lzr1nM4poUUjpIkaA01s/pEz61cwSBmgVGlrqqYQwjAj2BDm2UF+K4NkLaM22EbRdLWkhspG1jODEM08F0Z6Zww0kjhYthOITeEKF3AmG3I0KFljFkNEVkKY4fj5jbMtMBaGLfJOvHIzJLi3jBSZQfR4Ymp0cGeX6qi4V2nFUXrqY9O8mLW/2a3CgXHN3LPG7k6aZefvfWtWQMC7qHAg4/F/LTbfDVkyAXsuWnB7jGg9ZqqFwNib6ZEwkaWFRJs2WIK/70s1f95Jn1Jwu/FpABreDLv/0WTqk0fUM72a5Ps71vnO2HT4v6S66uqszGEyTcakzbZDx3kqe7y8xZBJNT0ygT2jrWEIvNwjCbEZQIy+P4hT0ExQIqUGi/jCCGjNkgDaxkHI1GWDbClCANpJsEKQlKORRxVNSFNiyC8km03YQXlVjfl+D8RR5RfoDxHnhsEEaKOcZOFynGUgTCQOd6EZ5J5QgsnXUcGfqk7Zmz4nCeRXqCedeVmOtUEH/8FbjnCVg/CrIMuQheOsVlzEQeHizC5gJc1gmZkJk2zjVlKAujrqoxe8k9n3jrxu9//4Xx/0rIv/I+Xu+TLD+ymhuqE5V/8sbzE6Tikj0/GWSD1cDtV1WS6wqc8nQ3y+bXkkkvJJGuxDYcVP4UUWkXhjMLESURxDBEFruyDSkUZiKN5cZmztMoVFhCKxONTzA9SGHsOEFxC4o6dDSMn/cYnYC/3GPyZzcKVCGgdzP8/l4YbhE0LNJ0zm2gLlFBYFYwu8qiTkZ3OsMv9u19BZ599B/nVgPuqje4WbtQVYCshLkrYUUGuk/Ct45z/4jmbf/EqbT0ZbhGSz5T0hhxDYGAhtlJPv6xW/YuX7Rw1YpVHw5/bSH/P8Tm1QZmGeDWJmhbZlNOzabTtOjsdEi4CYzoGFGxjIWD0lUYdhuGKRFmHCvdgJ1IY8XTM11sI5+gOIY3NUhxYiNKh+hyiJcbY2IK/tce+MMrQHjgKfj00zYT61rJneihuq1M9y6Y3TaPeCnOG69vu+MDv//wvf9c6c/AnZ+Hv5kDiVUWtN8INRmIS8jacPh5ena+zLrv/LMmJD/9G979hW/xpc0vkzivDrqGYM3FTay4bulln/jwkxtfl+k/11yK0d7Mx7IFGCjBrDqoyUUc2jBK974hXhif5NTREvXtC7GsWoRfQkUTIJMIK45SBSJdxp8aJshPEnklgtIw3vQgYVBEGzVIUQYzixKDaBOKJ6C5ceYcrRQM7onYaWoueetSDNmBSOfY+XgvJ4qDYI5dlq1IznvHe+cc2vLM4D+UtDwLewJ4V0cDmZZOiLdUUpWxSSXm4Vr1NM2rqtg/PXrRriGegX+MqT/4JC/fdgXFrfu4pqMAhQRUuzmcSfeqN//xm/f+7NHtXa87yK0NGP40H8sHad56YUDPUU1FFVwYQcaG9HBA1D3NMy/18M2tPajxUabJU/AHEQgiNKadRipQ0RRBqR8V5lCYSMcF7xRCOQTFIwRegIqAUahogvI07N4F5YATz50u/3GiefYlF61Z7szvnE+qYpDpkyHHwim3GCst29M9+vY73nnJynOvbD39gfdeNvDQj/ZoDZt0mXX1bVQ01CZJJjtwzTFsUUEiUUlnxqw73TVxw6kiX/qn91zl0nS6n9tiBsxthQWtMBI66RO1c146/OxLO153kGNZjHRN5mO/c9u1LGp3qHNLfG9PmbWroG0pZDKQiEFTVrGyOUNo1bNnGk4OFujrGuH5Y70cGMyTMCYx7FFso3ZmCyg0OgLCUUIt0d4wYRBh2JDOzviZX9wIO4tw3hX89eMv81cTlSOjza0tb6xLZ5m/YDlrLpuFMZZguuAh8tPu9tFTi6wYv/3Srq393fvULmDoXMX2RDNX9k4XKxsaKrGsJmxGkf5xkgmX5mjSefgEh/knP+N7dYYnDg1TOalhrgf2JIzZ5vE33bjySw/9cFv/6w5yGCEzCfV7K+bVxTOJThKN7aSsYbb2GJy30qG62qNmQQPV8yuIzb+AZOss2mZlaWiZRXXrfMxkGSM9Sr48zYZnx8Knukb7XadnmlRPmCt1xwKzjVD3o5lEGRCpmWPM8Z3wxRN4vRafmVXP57YeJVp3Tvyo9Py7KusbYzHDJhFvpm1hA/MWdlKdzZLvH2GyNMa8+vDShipus2Js3zHMzjdfyMaRItef7pu2ao1Ry7GnMMsm8aqFZBvrLLN/5MpjY1G3BwcBBif54Ox6KnNAewIOG3Db3bc+defb/vYrr8s1uVxE9fRFTz/y3IlLU2lR3dkxl4bmRWzefIyoop5zOiqJxZtw0itIpJuwTAfXSeMm6klksmQzzdRk5mKalWTqxr/2xZ9OXPXoy95fLVniPbfxUU8fHTi9a9qZtrb3UF8sQJSEPdvguyNwosBHcyU+vfUoEcCRQ56/f9XQhkZj6rKYkc1IJXGUh9YmNTVVXH3+G2hLphkqWI6TGqof7TduvPF957zwhS8P7tzXxV/tOxUNJ0zv2tbKQFZkEqSqL8KJpZhXlYlNnhy51Sz6n/3MX7I2V+adNXni5dhMxC61jPVB6pU3vbQJ9bqE/KoMAisPnBhbdqBrkLTVxUQ5z/o949xy8SocJ4spYphODCv4P+2dWXBT1xnHf/fqarUkL3gBjHBtFgMx1DVQApilMVAYQlLa6ZZA0/aBzJROShLakmnKA21fOp2hJU07yaQsE7O0BWNq1sZlC7h4w9jgUNsYrzIyWJItWbJ0de9VH0zpNp1ppxPJMvxf7/fwv+c358yZ75zzfTIRRSaihBF1EklWGzcbKzlxsXW/sd/3+jUXMsAH1fQ1uDlZ08PJeRO4dOQiZx1TGGlopKi8gcumSXw7K5/3Xd3/MrC19M0vdl+tO+x86bynWQr23eaB9xYe9y1MWgBTylzmORwIYR836gZsbY0Bz5A7/Ld+itftHhSbnpLMqSbMSfkYRDCn2ZmVm8qeuk5R3xktSpnEyls3IXsK9AWgysr3a0uJaUY7nvWuzwBrrXqRbc8uxHrfSTTby+qZWSRlrMRoyWREjTI8EiAiJeFzOzl24DSlHZ7dYXjt4zL1/tt83uvjG61t0O2EU5Wgqo8+HwP2/2P8D2CL9Wu23YWFay2ZkoTVmA4GPZc/PMyOQ/dYWzKRg6dcTBBg+jP5vbvefPHLn/3MzqpYDnQ8n65+Hdi/cU3B2uIFFiR3iNLyAAun3MWiLENVZYzmFFSdiKiEuXToPGc6PPvD8MbHaWrzVsqAsv82/ifw7h7Jb2vpqPyZbtoqzCIIUY0FhWtYUnuMq3UuAPJMEnmF6ZWxBgxxLPE0w8ryF5ay9IsrCkg3mUizZzHdARc+gmF/C3JoCFkehpEQtTXl2jutfb/sg62MkWrw/7QcyuyRB73brrecC3T7A2hRDR1+DOYgnQ97191JMnmL581+LR7+4vV0dcOLxZSu/iTWDL0Nk+iBYC9p5hBVd2DajBzsBjvDD3o4ceCPlN/uOdDm42VGn/uOOZ1pQvugieqlaWH/kfq+dY4pOUzQq7Q1d9LQK6MBz29ZEfzpjqO74uEv5jPZYuT59Yv5TcmnBctEix6jfAeECegsU5kwWcfTgo6Ge50EIwN8+Ltq9b3brr1VvWwjAZQiUDjT3M/ht8pw+zpYrJOxCSDpJe633t8et/PkmC4bIuuWP0X5VxZBimTAoi9ArwujRSMItlzEkMCC5zz8/NdObk92UtnF3j7YQoKo/wr5y14Bn2GIP9+oZVYu6Oph2mxH09zlc69cON047iGvWzhD3PfNjUvJNviIyGFQbhNUw/i8JlIzl6NXjGiKi8iQyhEXpcB2Ekg9AiyQkpleMoeBK9UcrNIwWizMK8g8tWdH6Z1xPZPtVp4rMHAsL1WTrjVdJeoC/0eQmavhbYdzvgBF4jmyVkVRiHI6yq+AVxhNWCWOisFIBinJhSxyJHGiohJnWrB59tzsnfG0FRPIeh0/yslH6h4WkIccJOu6yFydjdngRG6HkMrlo6qWxRnyM4B0+KEvwQCX72JV6wPyxKiKoPgJqz5GgKIlRHd9r0yJp7eYbLz0IjQHJrL5hc+xvjifwuVLSc/yoojglujNG63mugboHQQ6Vkx7lwRTRz3zk0UmCWoUQQ7SNdxECxDpiP+eIiaQN6+kTJTMWIxWJHMWBlEmLIeIaCAIKFdGO/B0L4BX7YCtoX3+9ldZlEiQD5+AES9oahSEKPdqZCLwp6ZmWh4LyA3H2TtHJ4b0Oo1ki4Vk2wyMZglzaiZu0fQobhlcVKA8HCbn98f/71LRsdQnauBlWdJhsuQi6c10dAgwWh/E81hAroSeetq/2+sNYrKkYNAnoYl6VMVHvRZ6FLcbBoZgo97Ke6kFo0d1CaIkIDcaFdBJoPgvcRTVBbSOBXMxS4a01EJzezeSEkRQNIwCqH7QZv977LCbLTdOUpFIy3WeA9JTQCdK+EevAtwEzj1WkJ8GZ0Vtozc4eBct0IYcCOO/HEKpYtxIJAedaKfzahRNGUu+YqRrcLzIotV4RwIIcgvhboVgJ8wqmjMuACcbwWQ0IYghLmgaGux77CADzJzM1iOVvRgMJiQB7JnwKUX5VqID3rmBty3JYEibhclupFcdQP0fjivHFeT6k1pP6mAYRchAshvRT7JgrG/tSXTI9ypwZJjAYJTw98joPcppxlAyJ6aQN4AyKc23a1CB5Kmz0SSVYYGEl7oE0kSBFL2OG70eWp3s42H31scO8g7QzjuHmjr7IxhsU9AyslFzEh/y2SpwY8dgNOP3ubra+c8t9cY9ZIDvPEudmuS6YjAGaPPc42xn4kPuA4gO4fV0U3Gp4xJx6jUxZiBv2k3Xg5v9d4xGM8KcqQyuX5/wkL+aBUHSaayrodoz9vzF5Y5XyTLK2gbbg3mOiaxYODfhIWeUcPB+zwBl54ZGGL3R+QTyF96koq+rZUTQ+kkTbyU85NJT/LbHDddHTxf/8ATyQznvcvbQib/Q2Hgy4SH/4g08a56i2qRxlif6u760kMVbXpoVff3H6wvGw/9sgmmbRp9djzn9FTRsCUT+GrI4AAAAAElFTkSuQmCC;" vertex="1" parent="1">
          <mxGeometry x="180" y="70" width="58.18" height="50" as="geometry" />
        </mxCell>
        <mxCell id="8xMMQV7CRU2Fi8QRk28g-21" value="" style="shape=image;verticalLabelPosition=bottom;labelBackgroundColor=default;verticalAlign=top;aspect=fixed;imageAspect=0;editableCssRules=.*;image=data:image/svg+xml,PHN2ZyB4bWxucz0iaHR0cDovL3d3dy53My5vcmcvMjAwMC9zdmciIHZpZXdCb3g9Ii0wLjAwMDAwMzgxNDY5NzI2NTYyNSAwIDIwMi44MDU4NjI0MjY3NTc4IDIyOC43NTQ2Mzg2NzE4NzUiIGhlaWdodD0iMjI4Ljc1NDYzODY3MTg3NSIgd2lkdGg9IjIwMi44MDU4NjI0MjY3NTc4IiB4bWw6c3BhY2U9InByZXNlcnZlIiBpZD0ic3ZnMiIgdmVyc2lvbj0iMS4xIj48bWV0YWRhdGEgaWQ9Im1ldGFkYXRhOCI+aW1hZ2Uvc3ZnK3htbDwvbWV0YWRhdGE+PGRlZnMgaWQ9ImRlZnM2Ij48Y2xpcFBhdGggaWQ9ImNsaXBQYXRoMTAwIiBjbGlwUGF0aFVuaXRzPSJ1c2VyU3BhY2VPblVzZSI+PHBhdGggaWQ9InBhdGg5OCIgZD0ibSAxMTguOTc4LDY2OS4wMTkgYyAtMTIuNjk1LC0xMi42ODkgLTEyLjY5NSwtMzMuMjc2IDAsLTQ1Ljk3NiB2IDAgYyA5LjgzNiwtOS44MjkgMjQuMzk2LC0xMi4wMDggMzYuMzYxLC02LjYgdiAwIC0xMS41MjQgaCAtMzUuMTkgbCAtOS41ODEsLTkuNTY3IGggNTQuMzM4IHYgNDIuNjY4IGwgLTguMjExLC04LjIxIGggLTMxLjAyNyBsIDM5LjI0MSwzOS4yNDQgYyAtNi4zNDMsNi4zMjEgLTE0LjY0OCw5LjQ4MiAtMjIuOTUxLDkuNDgzIHYgMCBjIC04LjMxOSwwIC0xNi42MzUsLTMuMTcyIC0yMi45OCwtOS41MTgiLz48L2NsaXBQYXRoPjxyYWRpYWxHcmFkaWVudCBpZD0icmFkaWFsR3JhZGllbnQxMTAiIHNwcmVhZE1ldGhvZD0icGFkIiBncmFkaWVudFRyYW5zZm9ybT0ibWF0cml4KDM1LjM0NTcxOCwwLDAsLTM1LjM0NTcxOCwxMzcuMTgzMTEsNjM2Ljk0NDM0KSIgZ3JhZGllbnRVbml0cz0idXNlclNwYWNlT25Vc2UiIHI9IjEiIGN5PSIwIiBjeD0iMCIgZnk9IjAiIGZ4PSIwIj48c3RvcCBpZD0ic3RvcDEwNiIgb2Zmc2V0PSIwIiBzdHlsZT0ic3RvcC1vcGFjaXR5OjE7c3RvcC1jb2xvcjojOTM5NTk4Ii8+PHN0b3AgaWQ9InN0b3AxMDgiIG9mZnNldD0iMSIgc3R5bGU9InN0b3Atb3BhY2l0eToxO3N0b3AtY29sb3I6Izc3Nzg3YiIvPjwvcmFkaWFsR3JhZGllbnQ+PGNsaXBQYXRoIGlkPSJjbGlwUGF0aDEyMCIgY2xpcFBhdGhVbml0cz0idXNlclNwYWNlT25Vc2UiPjxwYXRoIGlkPSJwYXRoMTE4IiBkPSJtIDE2NC45NTcsNzExLjcxMyB2IC00Mi42MTUgbCA4LjE2NCw4LjE3NCBoIDMxLjAyOCBsIC0zOS4yMjcsLTM5LjIyNiBjIDEyLjY5OCwtMTIuNjkzIDMzLjI3LC0xMi42ODIgNDUuOTYsMCB2IDAgYyAxMi42OTcsMTIuNjk3IDEyLjY5NywzMy4yODUgMCw0NS45NzQgdiAwIGMgLTkuODM2LDkuODMyIC0yNC4zOTksMTIuMDE5IC0zNi4zNjIsNi42MSB2IDAgMTEuNTE3IGggMzUuMjU3IGwgOS41MTUsOS41NjYgeiIvPjwvY2xpcFBhdGg+PHJhZGlhbEdyYWRpZW50IGlkPSJyYWRpYWxHcmFkaWVudDEzMCIgc3ByZWFkTWV0aG9kPSJwYWQiIGdyYWRpZW50VHJhbnNmb3JtPSJtYXRyaXgoMzUuMzUxMjExLDAsMCwtMzUuMzUxMjExLDE5Mi42NjM1Nyw2NzAuMTIxNTgpIiBncmFkaWVudFVuaXRzPSJ1c2VyU3BhY2VPblVzZSIgcj0iMSIgY3k9IjAiIGN4PSIwIiBmeT0iMCIgZng9IjAiPjxzdG9wIGlkPSJzdG9wMTI2IiBvZmZzZXQ9IjAiIHN0eWxlPSJzdG9wLW9wYWNpdHk6MTtzdG9wLWNvbG9yOiMzNWFhZDEiLz48c3RvcCBpZD0ic3RvcDEyOCIgb2Zmc2V0PSIxIiBzdHlsZT0ic3RvcC1vcGFjaXR5OjE7c3RvcC1jb2xvcjojMDA4ZWIwIi8+PC9yYWRpYWxHcmFkaWVudD48Y2xpcFBhdGggaWQ9ImNsaXBQYXRoMSIgY2xpcFBhdGhVbml0cz0idXNlclNwYWNlT25Vc2UiPjxwYXRoIHN0eWxlPSJzdHJva2Utd2lkdGg6MC45OTk5OTgiIGlkPSJwYXRoMSIgZD0ibSAtMTk0LjI4MzIsMjEyLjE5NjMgaCA2MTIgdiAtNzkyIGggLTYxMiB6Ii8+PC9jbGlwUGF0aD48Y2xpcFBhdGggaWQ9ImNsaXBQYXRoMiIgY2xpcFBhdGhVbml0cz0idXNlclNwYWNlT25Vc2UiPjxwYXRoIHN0eWxlPSJzdHJva2Utd2lkdGg6MC45OTk5OTgiIGlkPSJwYXRoMiIgZD0ibSAtMTI3LjE4ODUsMjE5Ljk3NjEgaCA2MTIgdiAtNzkyIGggLTYxMiB6Ii8+PC9jbGlwUGF0aD48Y2xpcFBhdGggaWQ9ImNsaXBQYXRoMyIgY2xpcFBhdGhVbml0cz0idXNlclNwYWNlT25Vc2UiPjxwYXRoIHN0eWxlPSJzdHJva2Utd2lkdGg6MC45OTk5OTgiIGlkPSJwYXRoMyIgZD0ibSAtMjE5LjExMTgsMjE4Ljc3NzggaCA2MTIgdiAtNzkyIGggLTYxMiB6Ii8+PC9jbGlwUGF0aD48Y2xpcFBhdGggaWQ9ImNsaXBQYXRoNCIgY2xpcFBhdGhVbml0cz0idXNlclNwYWNlT25Vc2UiPjxwYXRoIHN0eWxlPSJzdHJva2Utd2lkdGg6MC45OTk5OTgiIGlkPSJwYXRoNCIgZD0ibSAtMTEwLjc1MzksMjM2LjYwNSBoIDYxMiB2IC03OTIgaCAtNjEyIHoiLz48L2NsaXBQYXRoPjwvZGVmcz48ZyB0cmFuc2Zvcm09Im1hdHJpeCgxLjMzMzMzMzMsMCwwLC0xLjMzMzMzMzMsLTExOC41MDQ4Niw5NDguOTUwNjQpIiBpZD0iZzEwIj48ZyBpZD0iZzU0Ij48ZyBjbGlwLXBhdGg9InVybCgjY2xpcFBhdGg0KSIgdHJhbnNmb3JtPSJ0cmFuc2xhdGUoMTEwLjc1MzksNTU1LjM5NSkiIGlkPSJnNzgiPjxwYXRoIGlkPSJwYXRoODAiIHN0eWxlPSJmaWxsOiM3Nzc4N2I7ZmlsbC1vcGFjaXR5OjE7ZmlsbC1ydWxlOm5vbnplcm87c3Ryb2tlOm5vbmUiIGQ9Im0gMCwwIGMgLTQuMjg1LC0zLjA4IC0xMC4yOCwtMi42OTkgLTE0LjEzMiwxLjE1NSAtNC4yODUsNC4yODcgLTQuMjg1LDExLjIzOCAwLDE1LjUxNSA0LjI4MSw0LjI4OSAxMS4yMjIsNC4yODkgMTUuNTEzLDAgbCAzLjE5NCwzLjIwMiBjIC02LjA0Niw2LjA1NSAtMTUuODU5LDYuMDU1IC0yMS45MTUsMCAtNi4wNDcsLTYuMDUzIC02LjA0NywtMTUuODY1IDAsLTIxLjkxOCA0LjY5NSwtNC42ODcgMTEuNjMyLC01LjcyOCAxNy4zNCwtMy4xNSB2IC01LjQ5IGggLTE2Ljc4MSBsIC00LjU2MiwtNC41NjIgSCA0LjU2MSBWIDUuMTA3IGMgMCwwIC0xLjE5OSwtMS45NjQgLTMuMTgsLTMuOTUyIEMgMC45NSwwLjcyNSAwLjQ4LDAuMzQ3IDAsMCIvPjwvZz48ZyBjbGlwLXBhdGg9InVybCgjY2xpcFBhdGgzKSIgdHJhbnNmb3JtPSJ0cmFuc2xhdGUoMjE5LjExMTgsNTczLjIyMjIpIiBpZD0iZzgyIj48cGF0aCBpZD0icGF0aDg0IiBzdHlsZT0iZmlsbDojMDA4ZWIwO2ZpbGwtb3BhY2l0eToxO2ZpbGwtcnVsZTpub256ZXJvO3N0cm9rZTpub25lIiBkPSJtIDAsMCBjIDQuMjgsMy4wNjggMTAuMjgyLDIuNjg4IDE0LjEzLC0xLjE1NyA0LjI5MSwtNC4yODkgNC4yOTEsLTExLjIzNSAwLC0xNS41MjIgLTQuMjc5LC00LjI4MSAtMTEuMjI4LC00LjI4MSAtMTUuNTE0LDAgbCAtMy4xOTksLTMuMTk0IGMgNi4wNTYsLTYuMDU2IDE1Ljg2OSwtNi4wNTYgMjEuOTE2LDAgNi4wNTEsNi4wNDQgNi4wNTEsMTUuODU0IDAsMjEuOTExIEMgMTIuNjQzLDYuNzIyIDUuNzAzLDcuNzY2IDAsNS4xODYgdiA1LjQ5IGggMTYuNzc1IGwgNC41NjMsNC41NjIgSCAtNC41NiBWIDIuMDU0IC01LjEyMSBjIDAsMCAxLjE4OCwxLjk3OSAzLjE3NiwzLjk2NCBDIC0wLjk0OSwtMC43MzQgLTAuNDg2LC0wLjM1NCAwLDAiLz48L2c+PGcgY2xpcC1wYXRoPSJ1cmwoI2NsaXBQYXRoMikiIHRyYW5zZm9ybT0idHJhbnNsYXRlKDEyNy4xODg1LDU3Mi4wMjM5KSIgaWQ9Imc4NiI+PHBhdGggaWQ9InBhdGg4OCIgc3R5bGU9ImZpbGw6Izc3Nzg3YjtmaWxsLW9wYWNpdHk6MTtmaWxsLXJ1bGU6bm9uemVybztzdHJva2U6bm9uZSIgZD0ibSAwLDAgYyA0LjI1OCw0LjI0OCAxMS4xNyw0LjI0OCAxNS40MzUsMCAwLjkyOSwtMC45MzIgMS42MzMsLTEuOTk1IDIuMTU4LC0zLjEzOCBIIC0yLjE3NCBDIC0xLjY0OCwtMS45OTUgLTAuOTMxLC0wLjkzMiAwLDAgbSAwLC0xNS40MzggYyAtMi4xMzMsMi4xMzUgLTMuMTk3LDQuOTIzIC0zLjE5Nyw3LjcxOSBoIDI2LjQwNiBjIDAsMS41NDYgLTAuMjM0LDMuMDkxIC0wLjY5OCw0LjU4MSAtMC43MTMsMi4zMjkgLTEuOTkyLDQuNTI4IC0zLjgzOCw2LjM4MSAtNi4wNTIsNi4wNTUgLTE1Ljg2Myw2LjA1NSAtMjEuOTIxLDAgLTYuMDQ4LC02LjA2MyAtNi4wNDgsLTE1Ljg3MyAwLC0yMS45MTggNi4wNTgsLTYuMDU1IDE1Ljg2OSwtNi4wNTUgMjEuOTIxLDAgbCAtMy4yMzgsMy4yMzcgQyAxMS4xNywtMTkuNjk5IDQuMjU4LC0xOS42OTkgMCwtMTUuNDM4Ii8+PC9nPjxnIGNsaXAtcGF0aD0idXJsKCNjbGlwUGF0aDEpIiB0cmFuc2Zvcm09InRyYW5zbGF0ZSgxOTQuMjgzMiw1NzkuODAzNykiIGlkPSJnOTAiPjxwYXRoIGlkPSJwYXRoOTIiIHN0eWxlPSJmaWxsOiMwMDhlYjA7ZmlsbC1vcGFjaXR5OjE7ZmlsbC1ydWxlOm5vbnplcm87c3Ryb2tlOm5vbmUiIGQ9Ik0gMCwwIEMgLTUuNTk1LDAgLTEwLjQ3OSwtMi45NzQgLTEzLjIxMSwtNy40MTYgLTE1LjkzMiwtMi45NzQgLTIwLjgyLDAgLTI2LjQxNSwwIGMgLTMuMTg5LDAgLTYuMTQ4LC0wLjk3MiAtOC42MTQsLTIuNjIzIC0xLjg2LC0xLjI0MiAtMy40MTksLTIuODg1IC00LjU4NCwtNC43OTMgdiAtMjMuMDc1IGggNC41ODQgdiAyMS42NjUgYyAxLjk5OSwyLjU3NiA1LjEwOSw0LjIzNiA4LjYxNCw0LjIzNiA2LjAzLDAgMTAuOTEsLTQuODc5IDEwLjkxLC0xMC45MDkgdiAtMTQuOTkyIGggNC41OTIgdiAxNC45OTIgYyAwLDYuMDMgNC44ODgsMTAuOTA5IDEwLjkxMywxMC45MDkgNi4wMjQsMCAxMC45MDgsLTQuODc5IDEwLjkwOCwtMTAuOTA5IHYgLTE0Ljk5MiBoIDQuNTkxIHYgMTQuOTkyIEMgMTUuNDk5LC02LjkzNiA4LjU1NywwIDAsMCIvPjwvZz48L2c+PGcgaWQ9Imc5NCI+PGcgY2xpcC1wYXRoPSJ1cmwoI2NsaXBQYXRoMTAwKSIgaWQ9Imc5NiI+PGcgaWQ9ImcxMDIiPjxnIGlkPSJnMTA0Ij48cGF0aCBpZD0icGF0aDExMiIgc3R5bGU9ImZpbGw6dXJsKCNyYWRpYWxHcmFkaWVudDExMCk7c3Ryb2tlOm5vbmUiIGQ9Im0gMTE4Ljk3OCw2NjkuMDE5IGMgLTEyLjY5NSwtMTIuNjg5IC0xMi42OTUsLTMzLjI3NiAwLC00NS45NzYgdiAwIGMgOS44MzYsLTkuODI5IDI0LjM5NiwtMTIuMDA4IDM2LjM2MSwtNi42IHYgMCAtMTEuNTI0IGggLTM1LjE5IGwgLTkuNTgxLC05LjU2NyBoIDU0LjMzOCB2IDQyLjY2OCBsIC04LjIxMSwtOC4yMSBoIC0zMS4wMjcgbCAzOS4yNDEsMzkuMjQ0IGMgLTYuMzQzLDYuMzIxIC0xNC42NDgsOS40ODIgLTIyLjk1MSw5LjQ4MyB2IDAgYyAtOC4zMTksMCAtMTYuNjM1LC0zLjE3MiAtMjIuOTgsLTkuNTE4Ii8+PC9nPjwvZz48L2c+PC9nPjxnIGlkPSJnMTE0Ij48ZyBjbGlwLXBhdGg9InVybCgjY2xpcFBhdGgxMjApIiBpZD0iZzExNiI+PGcgaWQ9ImcxMjIiPjxnIGlkPSJnMTI0Ij48cGF0aCBpZD0icGF0aDEzMiIgc3R5bGU9ImZpbGw6dXJsKCNyYWRpYWxHcmFkaWVudDEzMCk7c3Ryb2tlOm5vbmUiIGQ9Im0gMTY0Ljk1Nyw3MTEuNzEzIHYgLTQyLjYxNSBsIDguMTY0LDguMTc0IGggMzEuMDI4IGwgLTM5LjIyNywtMzkuMjI2IGMgMTIuNjk4LC0xMi42OTMgMzMuMjcsLTEyLjY4MiA0NS45NiwwIHYgMCBjIDEyLjY5NywxMi42OTcgMTIuNjk3LDMzLjI4NSAwLDQ1Ljk3NCB2IDAgYyAtOS44MzYsOS44MzIgLTI0LjM5OSwxMi4wMTkgLTM2LjM2Miw2LjYxIHYgMCAxMS41MTcgaCAzNS4yNTcgbCA5LjUxNSw5LjU2NiB6Ii8+PC9nPjwvZz48L2c+PC9nPjwvZz48L3N2Zz4=;" vertex="1" parent="1">
          <mxGeometry x="250" y="70" width="44.32" height="50" as="geometry" />
        </mxCell>
        <mxCell id="8xMMQV7CRU2Fi8QRk28g-22" value="" style="endArrow=none;html=1;rounded=0;" edge="1" parent="1">
          <mxGeometry width="50" height="50" relative="1" as="geometry">
            <mxPoint x="40" y="240" as="sourcePoint" />
            <mxPoint x="40" y="140" as="targetPoint" />
          </mxGeometry>
        </mxCell>
        <mxCell id="8xMMQV7CRU2Fi8QRk28g-23" value="" style="endArrow=none;html=1;rounded=0;" edge="1" parent="1">
          <mxGeometry width="50" height="50" relative="1" as="geometry">
            <mxPoint x="40" y="240" as="sourcePoint" />
            <mxPoint x="140" y="240" as="targetPoint" />
          </mxGeometry>
        </mxCell>
        <mxCell id="8xMMQV7CRU2Fi8QRk28g-24" value="" style="endArrow=none;html=1;rounded=0;" edge="1" parent="1">
          <mxGeometry width="50" height="50" relative="1" as="geometry">
            <mxPoint x="210" y="240" as="sourcePoint" />
            <mxPoint x="310" y="240" as="targetPoint" />
          </mxGeometry>
        </mxCell>
        <mxCell id="8xMMQV7CRU2Fi8QRk28g-25" value="" style="endArrow=none;html=1;rounded=0;" edge="1" parent="1">
          <mxGeometry width="50" height="50" relative="1" as="geometry">
            <mxPoint x="210" y="240" as="sourcePoint" />
            <mxPoint x="210" y="140" as="targetPoint" />
          </mxGeometry>
        </mxCell>
        <mxCell id="8xMMQV7CRU2Fi8QRk28g-26" value="" style="endArrow=none;html=1;rounded=0;" edge="1" parent="1">
          <mxGeometry width="50" height="50" relative="1" as="geometry">
            <mxPoint x="380" y="240" as="sourcePoint" />
            <mxPoint x="480" y="240" as="targetPoint" />
          </mxGeometry>
        </mxCell>
        <mxCell id="8xMMQV7CRU2Fi8QRk28g-27" value="" style="endArrow=none;html=1;rounded=0;" edge="1" parent="1">
          <mxGeometry width="50" height="50" relative="1" as="geometry">
            <mxPoint x="380" y="240" as="sourcePoint" />
            <mxPoint x="380" y="140" as="targetPoint" />
          </mxGeometry>
        </mxCell>
        <mxCell id="8xMMQV7CRU2Fi8QRk28g-29" value="" style="ellipse;whiteSpace=wrap;html=1;aspect=fixed;fillColor=#000000;" vertex="1" parent="1">
          <mxGeometry x="53" y="150" width="2" height="2" as="geometry" />
        </mxCell>
        <mxCell id="8xMMQV7CRU2Fi8QRk28g-30" value="" style="ellipse;whiteSpace=wrap;html=1;aspect=fixed;fillColor=#000000;" vertex="1" parent="1">
          <mxGeometry x="78" y="158" width="2" height="2" as="geometry" />
        </mxCell>
        <mxCell id="8xMMQV7CRU2Fi8QRk28g-31" value="" style="ellipse;whiteSpace=wrap;html=1;aspect=fixed;fillColor=#000000;" vertex="1" parent="1">
          <mxGeometry x="73" y="168" width="2" height="2" as="geometry" />
        </mxCell>
        <mxCell id="8xMMQV7CRU2Fi8QRk28g-32" value="" style="ellipse;whiteSpace=wrap;html=1;aspect=fixed;fillColor=#000000;" vertex="1" parent="1">
          <mxGeometry x="100" y="210" width="2" height="2" as="geometry" />
        </mxCell>
        <mxCell id="8xMMQV7CRU2Fi8QRk28g-33" value="" style="ellipse;whiteSpace=wrap;html=1;aspect=fixed;fillColor=#000000;" vertex="1" parent="1">
          <mxGeometry x="103" y="220" width="2" height="2" as="geometry" />
        </mxCell>
        <mxCell id="8xMMQV7CRU2Fi8QRk28g-34" value="" style="ellipse;whiteSpace=wrap;html=1;aspect=fixed;fillColor=#000000;" vertex="1" parent="1">
          <mxGeometry x="110" y="214" width="2" height="2" as="geometry" />
        </mxCell>
        <mxCell id="8xMMQV7CRU2Fi8QRk28g-35" value="" style="ellipse;whiteSpace=wrap;html=1;aspect=fixed;fillColor=#000000;" vertex="1" parent="1">
          <mxGeometry x="116" y="204" width="2" height="2" as="geometry" />
        </mxCell>
        <mxCell id="8xMMQV7CRU2Fi8QRk28g-36" value="" style="ellipse;whiteSpace=wrap;html=1;aspect=fixed;fillColor=#000000;" vertex="1" parent="1">
          <mxGeometry x="117" y="217" width="2" height="2" as="geometry" />
        </mxCell>
        <mxCell id="8xMMQV7CRU2Fi8QRk28g-37" value="" style="ellipse;whiteSpace=wrap;html=1;aspect=fixed;fillColor=#000000;" vertex="1" parent="1">
          <mxGeometry x="64" y="177" width="2" height="2" as="geometry" />
        </mxCell>
        <mxCell id="8xMMQV7CRU2Fi8QRk28g-38" value="" style="ellipse;whiteSpace=wrap;html=1;aspect=fixed;fillColor=#000000;" vertex="1" parent="1">
          <mxGeometry x="64" y="161" width="2" height="2" as="geometry" />
        </mxCell>
        <mxCell id="8xMMQV7CRU2Fi8QRk28g-39" value="" style="ellipse;whiteSpace=wrap;html=1;aspect=fixed;fillColor=#000000;" vertex="1" parent="1">
          <mxGeometry x="55" y="167" width="2" height="2" as="geometry" />
        </mxCell>
        <mxCell id="8xMMQV7CRU2Fi8QRk28g-40" value="" style="ellipse;whiteSpace=wrap;html=1;aspect=fixed;fillColor=#000000;" vertex="1" parent="1">
          <mxGeometry x="73" y="152" width="2" height="2" as="geometry" />
        </mxCell>
        <mxCell id="8xMMQV7CRU2Fi8QRk28g-41" value="" style="ellipse;whiteSpace=wrap;html=1;aspect=fixed;fillColor=#000000;" vertex="1" parent="1">
          <mxGeometry x="65" y="142" width="2" height="2" as="geometry" />
        </mxCell>
        <mxCell id="8xMMQV7CRU2Fi8QRk28g-42" value="" style="ellipse;whiteSpace=wrap;html=1;aspect=fixed;fillColor=#000000;" vertex="1" parent="1">
          <mxGeometry x="64" y="148" width="2" height="2" as="geometry" />
        </mxCell>
        <mxCell id="8xMMQV7CRU2Fi8QRk28g-43" value="" style="ellipse;whiteSpace=wrap;html=1;aspect=fixed;fillColor=#000000;" vertex="1" parent="1">
          <mxGeometry x="69" y="155" width="2" height="2" as="geometry" />
        </mxCell>
        <mxCell id="8xMMQV7CRU2Fi8QRk28g-44" value="" style="ellipse;whiteSpace=wrap;html=1;aspect=fixed;fillColor=#000000;" vertex="1" parent="1">
          <mxGeometry x="56" y="161" width="2" height="2" as="geometry" />
        </mxCell>
        <mxCell id="8xMMQV7CRU2Fi8QRk28g-45" value="" style="ellipse;whiteSpace=wrap;html=1;aspect=fixed;fillColor=#000000;" vertex="1" parent="1">
          <mxGeometry x="118" y="151" width="2" height="2" as="geometry" />
        </mxCell>
        <mxCell id="8xMMQV7CRU2Fi8QRk28g-46" value="" style="ellipse;whiteSpace=wrap;html=1;aspect=fixed;fillColor=#000000;" vertex="1" parent="1">
          <mxGeometry x="112" y="149" width="2" height="2" as="geometry" />
        </mxCell>
        <mxCell id="8xMMQV7CRU2Fi8QRk28g-47" value="" style="ellipse;whiteSpace=wrap;html=1;aspect=fixed;fillColor=#000000;" vertex="1" parent="1">
          <mxGeometry x="109" y="156" width="2" height="2" as="geometry" />
        </mxCell>
        <mxCell id="8xMMQV7CRU2Fi8QRk28g-48" value="" style="ellipse;whiteSpace=wrap;html=1;aspect=fixed;fillColor=#000000;" vertex="1" parent="1">
          <mxGeometry x="121" y="161" width="2" height="2" as="geometry" />
        </mxCell>
        <mxCell id="8xMMQV7CRU2Fi8QRk28g-49" value="" style="ellipse;whiteSpace=wrap;html=1;aspect=fixed;fillColor=#000000;" vertex="1" parent="1">
          <mxGeometry x="223" y="150" width="2" height="2" as="geometry" />
        </mxCell>
        <mxCell id="8xMMQV7CRU2Fi8QRk28g-50" value="" style="ellipse;whiteSpace=wrap;html=1;aspect=fixed;fillColor=#000000;" vertex="1" parent="1">
          <mxGeometry x="248" y="158" width="2" height="2" as="geometry" />
        </mxCell>
        <mxCell id="8xMMQV7CRU2Fi8QRk28g-51" value="" style="ellipse;whiteSpace=wrap;html=1;aspect=fixed;fillColor=#000000;" vertex="1" parent="1">
          <mxGeometry x="243" y="168" width="2" height="2" as="geometry" />
        </mxCell>
        <mxCell id="8xMMQV7CRU2Fi8QRk28g-52" value="" style="ellipse;whiteSpace=wrap;html=1;aspect=fixed;fillColor=#000000;" vertex="1" parent="1">
          <mxGeometry x="270" y="210" width="2" height="2" as="geometry" />
        </mxCell>
        <mxCell id="8xMMQV7CRU2Fi8QRk28g-53" value="" style="ellipse;whiteSpace=wrap;html=1;aspect=fixed;fillColor=#000000;" vertex="1" parent="1">
          <mxGeometry x="273" y="220" width="2" height="2" as="geometry" />
        </mxCell>
        <mxCell id="8xMMQV7CRU2Fi8QRk28g-54" value="" style="ellipse;whiteSpace=wrap;html=1;aspect=fixed;fillColor=#000000;" vertex="1" parent="1">
          <mxGeometry x="280" y="214" width="2" height="2" as="geometry" />
        </mxCell>
        <mxCell id="8xMMQV7CRU2Fi8QRk28g-55" value="" style="ellipse;whiteSpace=wrap;html=1;aspect=fixed;fillColor=#000000;" vertex="1" parent="1">
          <mxGeometry x="286" y="204" width="2" height="2" as="geometry" />
        </mxCell>
        <mxCell id="8xMMQV7CRU2Fi8QRk28g-56" value="" style="ellipse;whiteSpace=wrap;html=1;aspect=fixed;fillColor=#000000;" vertex="1" parent="1">
          <mxGeometry x="287" y="217" width="2" height="2" as="geometry" />
        </mxCell>
        <mxCell id="8xMMQV7CRU2Fi8QRk28g-57" value="" style="ellipse;whiteSpace=wrap;html=1;aspect=fixed;fillColor=#000000;" vertex="1" parent="1">
          <mxGeometry x="234" y="177" width="2" height="2" as="geometry" />
        </mxCell>
        <mxCell id="8xMMQV7CRU2Fi8QRk28g-58" value="" style="ellipse;whiteSpace=wrap;html=1;aspect=fixed;fillColor=#000000;" vertex="1" parent="1">
          <mxGeometry x="234" y="161" width="2" height="2" as="geometry" />
        </mxCell>
        <mxCell id="8xMMQV7CRU2Fi8QRk28g-59" value="" style="ellipse;whiteSpace=wrap;html=1;aspect=fixed;fillColor=#000000;" vertex="1" parent="1">
          <mxGeometry x="225" y="167" width="2" height="2" as="geometry" />
        </mxCell>
        <mxCell id="8xMMQV7CRU2Fi8QRk28g-60" value="" style="ellipse;whiteSpace=wrap;html=1;aspect=fixed;fillColor=#000000;" vertex="1" parent="1">
          <mxGeometry x="243" y="152" width="2" height="2" as="geometry" />
        </mxCell>
        <mxCell id="8xMMQV7CRU2Fi8QRk28g-61" value="" style="ellipse;whiteSpace=wrap;html=1;aspect=fixed;fillColor=#000000;" vertex="1" parent="1">
          <mxGeometry x="235" y="142" width="2" height="2" as="geometry" />
        </mxCell>
        <mxCell id="8xMMQV7CRU2Fi8QRk28g-62" value="" style="ellipse;whiteSpace=wrap;html=1;aspect=fixed;fillColor=#000000;" vertex="1" parent="1">
          <mxGeometry x="234" y="148" width="2" height="2" as="geometry" />
        </mxCell>
        <mxCell id="8xMMQV7CRU2Fi8QRk28g-63" value="" style="ellipse;whiteSpace=wrap;html=1;aspect=fixed;fillColor=#000000;" vertex="1" parent="1">
          <mxGeometry x="239" y="155" width="2" height="2" as="geometry" />
        </mxCell>
        <mxCell id="8xMMQV7CRU2Fi8QRk28g-64" value="" style="ellipse;whiteSpace=wrap;html=1;aspect=fixed;fillColor=#000000;" vertex="1" parent="1">
          <mxGeometry x="226" y="161" width="2" height="2" as="geometry" />
        </mxCell>
        <mxCell id="8xMMQV7CRU2Fi8QRk28g-65" value="" style="ellipse;whiteSpace=wrap;html=1;aspect=fixed;fillColor=#000000;" vertex="1" parent="1">
          <mxGeometry x="288" y="151" width="2" height="2" as="geometry" />
        </mxCell>
        <mxCell id="8xMMQV7CRU2Fi8QRk28g-66" value="" style="ellipse;whiteSpace=wrap;html=1;aspect=fixed;fillColor=#000000;" vertex="1" parent="1">
          <mxGeometry x="282" y="149" width="2" height="2" as="geometry" />
        </mxCell>
        <mxCell id="8xMMQV7CRU2Fi8QRk28g-67" value="" style="ellipse;whiteSpace=wrap;html=1;aspect=fixed;fillColor=#000000;" vertex="1" parent="1">
          <mxGeometry x="279" y="156" width="2" height="2" as="geometry" />
        </mxCell>
        <mxCell id="8xMMQV7CRU2Fi8QRk28g-68" value="" style="ellipse;whiteSpace=wrap;html=1;aspect=fixed;fillColor=#000000;" vertex="1" parent="1">
          <mxGeometry x="291" y="161" width="2" height="2" as="geometry" />
        </mxCell>
        <mxCell id="8xMMQV7CRU2Fi8QRk28g-69" value="" style="ellipse;whiteSpace=wrap;html=1;aspect=fixed;fillColor=#B3B3B3;strokeColor=#B3B3B3;" vertex="1" parent="1">
          <mxGeometry x="393" y="150" width="2" height="2" as="geometry" />
        </mxCell>
        <mxCell id="8xMMQV7CRU2Fi8QRk28g-70" value="" style="ellipse;whiteSpace=wrap;html=1;aspect=fixed;fillColor=#B3B3B3;strokeColor=#B3B3B3;" vertex="1" parent="1">
          <mxGeometry x="418" y="158" width="2" height="2" as="geometry" />
        </mxCell>
        <mxCell id="8xMMQV7CRU2Fi8QRk28g-71" value="" style="ellipse;whiteSpace=wrap;html=1;aspect=fixed;fillColor=#B3B3B3;strokeColor=#B3B3B3;" vertex="1" parent="1">
          <mxGeometry x="413" y="168" width="2" height="2" as="geometry" />
        </mxCell>
        <mxCell id="8xMMQV7CRU2Fi8QRk28g-72" value="" style="ellipse;whiteSpace=wrap;html=1;aspect=fixed;fillColor=#B3B3B3;strokeColor=#B3B3B3;" vertex="1" parent="1">
          <mxGeometry x="440" y="210" width="2" height="2" as="geometry" />
        </mxCell>
        <mxCell id="8xMMQV7CRU2Fi8QRk28g-73" value="" style="ellipse;whiteSpace=wrap;html=1;aspect=fixed;fillColor=#B3B3B3;strokeColor=#B3B3B3;" vertex="1" parent="1">
          <mxGeometry x="443" y="220" width="2" height="2" as="geometry" />
        </mxCell>
        <mxCell id="8xMMQV7CRU2Fi8QRk28g-74" value="" style="ellipse;whiteSpace=wrap;html=1;aspect=fixed;fillColor=#000000;strokeColor=#b85450;" vertex="1" parent="1">
          <mxGeometry x="448" y="212" width="6" height="6" as="geometry" />
        </mxCell>
        <mxCell id="8xMMQV7CRU2Fi8QRk28g-75" value="" style="ellipse;whiteSpace=wrap;html=1;aspect=fixed;fillColor=#B3B3B3;strokeColor=#B3B3B3;" vertex="1" parent="1">
          <mxGeometry x="456" y="204" width="2" height="2" as="geometry" />
        </mxCell>
        <mxCell id="8xMMQV7CRU2Fi8QRk28g-76" value="" style="ellipse;whiteSpace=wrap;html=1;aspect=fixed;fillColor=#B3B3B3;strokeColor=#B3B3B3;" vertex="1" parent="1">
          <mxGeometry x="457" y="217" width="2" height="2" as="geometry" />
        </mxCell>
        <mxCell id="8xMMQV7CRU2Fi8QRk28g-77" value="" style="ellipse;whiteSpace=wrap;html=1;aspect=fixed;fillColor=#B3B3B3;strokeColor=#B3B3B3;" vertex="1" parent="1">
          <mxGeometry x="404" y="177" width="2" height="2" as="geometry" />
        </mxCell>
        <mxCell id="8xMMQV7CRU2Fi8QRk28g-78" value="" style="ellipse;whiteSpace=wrap;html=1;aspect=fixed;fillColor=#000000;strokeColor=#82b366;" vertex="1" parent="1">
          <mxGeometry x="402" y="159" width="6" height="6" as="geometry" />
        </mxCell>
        <mxCell id="8xMMQV7CRU2Fi8QRk28g-79" value="" style="ellipse;whiteSpace=wrap;html=1;aspect=fixed;fillColor=#B3B3B3;strokeColor=#B3B3B3;" vertex="1" parent="1">
          <mxGeometry x="395" y="167" width="2" height="2" as="geometry" />
        </mxCell>
        <mxCell id="8xMMQV7CRU2Fi8QRk28g-80" value="" style="ellipse;whiteSpace=wrap;html=1;aspect=fixed;fillColor=#B3B3B3;strokeColor=#B3B3B3;" vertex="1" parent="1">
          <mxGeometry x="413" y="152" width="2" height="2" as="geometry" />
        </mxCell>
        <mxCell id="8xMMQV7CRU2Fi8QRk28g-81" value="" style="ellipse;whiteSpace=wrap;html=1;aspect=fixed;fillColor=#B3B3B3;strokeColor=#B3B3B3;" vertex="1" parent="1">
          <mxGeometry x="405" y="142" width="2" height="2" as="geometry" />
        </mxCell>
        <mxCell id="8xMMQV7CRU2Fi8QRk28g-82" value="" style="ellipse;whiteSpace=wrap;html=1;aspect=fixed;fillColor=#B3B3B3;strokeColor=#B3B3B3;" vertex="1" parent="1">
          <mxGeometry x="404" y="148" width="2" height="2" as="geometry" />
        </mxCell>
        <mxCell id="8xMMQV7CRU2Fi8QRk28g-83" value="" style="ellipse;whiteSpace=wrap;html=1;aspect=fixed;fillColor=#B3B3B3;strokeColor=#B3B3B3;" vertex="1" parent="1">
          <mxGeometry x="409" y="155" width="2" height="2" as="geometry" />
        </mxCell>
        <mxCell id="8xMMQV7CRU2Fi8QRk28g-84" value="" style="ellipse;whiteSpace=wrap;html=1;aspect=fixed;fillColor=#B3B3B3;strokeColor=#B3B3B3;" vertex="1" parent="1">
          <mxGeometry x="396" y="161" width="2" height="2" as="geometry" />
        </mxCell>
        <mxCell id="8xMMQV7CRU2Fi8QRk28g-85" value="" style="ellipse;whiteSpace=wrap;html=1;aspect=fixed;fillColor=#000000;strokeColor=#6c8ebf;" vertex="1" parent="1">
          <mxGeometry x="456" y="149" width="6" height="6" as="geometry" />
        </mxCell>
        <mxCell id="8xMMQV7CRU2Fi8QRk28g-86" value="" style="ellipse;whiteSpace=wrap;html=1;aspect=fixed;fillColor=#B3B3B3;strokeColor=#B3B3B3;" vertex="1" parent="1">
          <mxGeometry x="452" y="149" width="2" height="2" as="geometry" />
        </mxCell>
        <mxCell id="8xMMQV7CRU2Fi8QRk28g-87" value="" style="ellipse;whiteSpace=wrap;html=1;aspect=fixed;fillColor=#B3B3B3;strokeColor=#B3B3B3;" vertex="1" parent="1">
          <mxGeometry x="449" y="156" width="2" height="2" as="geometry" />
        </mxCell>
        <mxCell id="8xMMQV7CRU2Fi8QRk28g-88" value="" style="ellipse;whiteSpace=wrap;html=1;aspect=fixed;fillColor=#B3B3B3;strokeColor=#B3B3B3;" vertex="1" parent="1">
          <mxGeometry x="461" y="161" width="2" height="2" as="geometry" />
        </mxCell>
        <mxCell id="8xMMQV7CRU2Fi8QRk28g-96" value="" style="shape=flexArrow;endArrow=classic;html=1;rounded=0;" edge="1" parent="1">
          <mxGeometry width="50" height="50" relative="1" as="geometry">
            <mxPoint x="150" y="180" as="sourcePoint" />
            <mxPoint x="200" y="180" as="targetPoint" />
          </mxGeometry>
        </mxCell>
        <mxCell id="8xMMQV7CRU2Fi8QRk28g-97" value="" style="shape=flexArrow;endArrow=classic;html=1;rounded=0;" edge="1" parent="1">
          <mxGeometry width="50" height="50" relative="1" as="geometry">
            <mxPoint x="320" y="180" as="sourcePoint" />
            <mxPoint x="370" y="180" as="targetPoint" />
          </mxGeometry>
        </mxCell>
        <mxCell id="8xMMQV7CRU2Fi8QRk28g-98" value="" style="shape=image;verticalLabelPosition=bottom;labelBackgroundColor=default;verticalAlign=top;aspect=fixed;imageAspect=0;editableCssRules=.*;image=data:image/svg+xml,PHN2ZyB4bWxucz0iaHR0cDovL3d3dy53My5vcmcvMjAwMC9zdmciIHZpZXdCb3g9Ii0wLjAwMDAwMzgxNDY5NzI2NTYyNSAwIDIwMi44MDU4NjI0MjY3NTc4IDIyOC43NTQ2Mzg2NzE4NzUiIGhlaWdodD0iMjI4Ljc1NDYzODY3MTg3NSIgd2lkdGg9IjIwMi44MDU4NjI0MjY3NTc4IiB4bWw6c3BhY2U9InByZXNlcnZlIiBpZD0ic3ZnMiIgdmVyc2lvbj0iMS4xIj48bWV0YWRhdGEgaWQ9Im1ldGFkYXRhOCI+aW1hZ2Uvc3ZnK3htbDwvbWV0YWRhdGE+PGRlZnMgaWQ9ImRlZnM2Ij48Y2xpcFBhdGggaWQ9ImNsaXBQYXRoMTAwIiBjbGlwUGF0aFVuaXRzPSJ1c2VyU3BhY2VPblVzZSI+PHBhdGggaWQ9InBhdGg5OCIgZD0ibSAxMTguOTc4LDY2OS4wMTkgYyAtMTIuNjk1LC0xMi42ODkgLTEyLjY5NSwtMzMuMjc2IDAsLTQ1Ljk3NiB2IDAgYyA5LjgzNiwtOS44MjkgMjQuMzk2LC0xMi4wMDggMzYuMzYxLC02LjYgdiAwIC0xMS41MjQgaCAtMzUuMTkgbCAtOS41ODEsLTkuNTY3IGggNTQuMzM4IHYgNDIuNjY4IGwgLTguMjExLC04LjIxIGggLTMxLjAyNyBsIDM5LjI0MSwzOS4yNDQgYyAtNi4zNDMsNi4zMjEgLTE0LjY0OCw5LjQ4MiAtMjIuOTUxLDkuNDgzIHYgMCBjIC04LjMxOSwwIC0xNi42MzUsLTMuMTcyIC0yMi45OCwtOS41MTgiLz48L2NsaXBQYXRoPjxyYWRpYWxHcmFkaWVudCBpZD0icmFkaWFsR3JhZGllbnQxMTAiIHNwcmVhZE1ldGhvZD0icGFkIiBncmFkaWVudFRyYW5zZm9ybT0ibWF0cml4KDM1LjM0NTcxOCwwLDAsLTM1LjM0NTcxOCwxMzcuMTgzMTEsNjM2Ljk0NDM0KSIgZ3JhZGllbnRVbml0cz0idXNlclNwYWNlT25Vc2UiIHI9IjEiIGN5PSIwIiBjeD0iMCIgZnk9IjAiIGZ4PSIwIj48c3RvcCBpZD0ic3RvcDEwNiIgb2Zmc2V0PSIwIiBzdHlsZT0ic3RvcC1vcGFjaXR5OjE7c3RvcC1jb2xvcjojOTM5NTk4Ii8+PHN0b3AgaWQ9InN0b3AxMDgiIG9mZnNldD0iMSIgc3R5bGU9InN0b3Atb3BhY2l0eToxO3N0b3AtY29sb3I6Izc3Nzg3YiIvPjwvcmFkaWFsR3JhZGllbnQ+PGNsaXBQYXRoIGlkPSJjbGlwUGF0aDEyMCIgY2xpcFBhdGhVbml0cz0idXNlclNwYWNlT25Vc2UiPjxwYXRoIGlkPSJwYXRoMTE4IiBkPSJtIDE2NC45NTcsNzExLjcxMyB2IC00Mi42MTUgbCA4LjE2NCw4LjE3NCBoIDMxLjAyOCBsIC0zOS4yMjcsLTM5LjIyNiBjIDEyLjY5OCwtMTIuNjkzIDMzLjI3LC0xMi42ODIgNDUuOTYsMCB2IDAgYyAxMi42OTcsMTIuNjk3IDEyLjY5NywzMy4yODUgMCw0NS45NzQgdiAwIGMgLTkuODM2LDkuODMyIC0yNC4zOTksMTIuMDE5IC0zNi4zNjIsNi42MSB2IDAgMTEuNTE3IGggMzUuMjU3IGwgOS41MTUsOS41NjYgeiIvPjwvY2xpcFBhdGg+PHJhZGlhbEdyYWRpZW50IGlkPSJyYWRpYWxHcmFkaWVudDEzMCIgc3ByZWFkTWV0aG9kPSJwYWQiIGdyYWRpZW50VHJhbnNmb3JtPSJtYXRyaXgoMzUuMzUxMjExLDAsMCwtMzUuMzUxMjExLDE5Mi42NjM1Nyw2NzAuMTIxNTgpIiBncmFkaWVudFVuaXRzPSJ1c2VyU3BhY2VPblVzZSIgcj0iMSIgY3k9IjAiIGN4PSIwIiBmeT0iMCIgZng9IjAiPjxzdG9wIGlkPSJzdG9wMTI2IiBvZmZzZXQ9IjAiIHN0eWxlPSJzdG9wLW9wYWNpdHk6MTtzdG9wLWNvbG9yOiMzNWFhZDEiLz48c3RvcCBpZD0ic3RvcDEyOCIgb2Zmc2V0PSIxIiBzdHlsZT0ic3RvcC1vcGFjaXR5OjE7c3RvcC1jb2xvcjojMDA4ZWIwIi8+PC9yYWRpYWxHcmFkaWVudD48Y2xpcFBhdGggaWQ9ImNsaXBQYXRoMSIgY2xpcFBhdGhVbml0cz0idXNlclNwYWNlT25Vc2UiPjxwYXRoIHN0eWxlPSJzdHJva2Utd2lkdGg6MC45OTk5OTgiIGlkPSJwYXRoMSIgZD0ibSAtMTk0LjI4MzIsMjEyLjE5NjMgaCA2MTIgdiAtNzkyIGggLTYxMiB6Ii8+PC9jbGlwUGF0aD48Y2xpcFBhdGggaWQ9ImNsaXBQYXRoMiIgY2xpcFBhdGhVbml0cz0idXNlclNwYWNlT25Vc2UiPjxwYXRoIHN0eWxlPSJzdHJva2Utd2lkdGg6MC45OTk5OTgiIGlkPSJwYXRoMiIgZD0ibSAtMTI3LjE4ODUsMjE5Ljk3NjEgaCA2MTIgdiAtNzkyIGggLTYxMiB6Ii8+PC9jbGlwUGF0aD48Y2xpcFBhdGggaWQ9ImNsaXBQYXRoMyIgY2xpcFBhdGhVbml0cz0idXNlclNwYWNlT25Vc2UiPjxwYXRoIHN0eWxlPSJzdHJva2Utd2lkdGg6MC45OTk5OTgiIGlkPSJwYXRoMyIgZD0ibSAtMjE5LjExMTgsMjE4Ljc3NzggaCA2MTIgdiAtNzkyIGggLTYxMiB6Ii8+PC9jbGlwUGF0aD48Y2xpcFBhdGggaWQ9ImNsaXBQYXRoNCIgY2xpcFBhdGhVbml0cz0idXNlclNwYWNlT25Vc2UiPjxwYXRoIHN0eWxlPSJzdHJva2Utd2lkdGg6MC45OTk5OTgiIGlkPSJwYXRoNCIgZD0ibSAtMTEwLjc1MzksMjM2LjYwNSBoIDYxMiB2IC03OTIgaCAtNjEyIHoiLz48L2NsaXBQYXRoPjwvZGVmcz48ZyB0cmFuc2Zvcm09Im1hdHJpeCgxLjMzMzMzMzMsMCwwLC0xLjMzMzMzMzMsLTExOC41MDQ4Niw5NDguOTUwNjQpIiBpZD0iZzEwIj48ZyBpZD0iZzU0Ij48ZyBjbGlwLXBhdGg9InVybCgjY2xpcFBhdGg0KSIgdHJhbnNmb3JtPSJ0cmFuc2xhdGUoMTEwLjc1MzksNTU1LjM5NSkiIGlkPSJnNzgiPjxwYXRoIGlkPSJwYXRoODAiIHN0eWxlPSJmaWxsOiM3Nzc4N2I7ZmlsbC1vcGFjaXR5OjE7ZmlsbC1ydWxlOm5vbnplcm87c3Ryb2tlOm5vbmUiIGQ9Im0gMCwwIGMgLTQuMjg1LC0zLjA4IC0xMC4yOCwtMi42OTkgLTE0LjEzMiwxLjE1NSAtNC4yODUsNC4yODcgLTQuMjg1LDExLjIzOCAwLDE1LjUxNSA0LjI4MSw0LjI4OSAxMS4yMjIsNC4yODkgMTUuNTEzLDAgbCAzLjE5NCwzLjIwMiBjIC02LjA0Niw2LjA1NSAtMTUuODU5LDYuMDU1IC0yMS45MTUsMCAtNi4wNDcsLTYuMDUzIC02LjA0NywtMTUuODY1IDAsLTIxLjkxOCA0LjY5NSwtNC42ODcgMTEuNjMyLC01LjcyOCAxNy4zNCwtMy4xNSB2IC01LjQ5IGggLTE2Ljc4MSBsIC00LjU2MiwtNC41NjIgSCA0LjU2MSBWIDUuMTA3IGMgMCwwIC0xLjE5OSwtMS45NjQgLTMuMTgsLTMuOTUyIEMgMC45NSwwLjcyNSAwLjQ4LDAuMzQ3IDAsMCIvPjwvZz48ZyBjbGlwLXBhdGg9InVybCgjY2xpcFBhdGgzKSIgdHJhbnNmb3JtPSJ0cmFuc2xhdGUoMjE5LjExMTgsNTczLjIyMjIpIiBpZD0iZzgyIj48cGF0aCBpZD0icGF0aDg0IiBzdHlsZT0iZmlsbDojMDA4ZWIwO2ZpbGwtb3BhY2l0eToxO2ZpbGwtcnVsZTpub256ZXJvO3N0cm9rZTpub25lIiBkPSJtIDAsMCBjIDQuMjgsMy4wNjggMTAuMjgyLDIuNjg4IDE0LjEzLC0xLjE1NyA0LjI5MSwtNC4yODkgNC4yOTEsLTExLjIzNSAwLC0xNS41MjIgLTQuMjc5LC00LjI4MSAtMTEuMjI4LC00LjI4MSAtMTUuNTE0LDAgbCAtMy4xOTksLTMuMTk0IGMgNi4wNTYsLTYuMDU2IDE1Ljg2OSwtNi4wNTYgMjEuOTE2LDAgNi4wNTEsNi4wNDQgNi4wNTEsMTUuODU0IDAsMjEuOTExIEMgMTIuNjQzLDYuNzIyIDUuNzAzLDcuNzY2IDAsNS4xODYgdiA1LjQ5IGggMTYuNzc1IGwgNC41NjMsNC41NjIgSCAtNC41NiBWIDIuMDU0IC01LjEyMSBjIDAsMCAxLjE4OCwxLjk3OSAzLjE3NiwzLjk2NCBDIC0wLjk0OSwtMC43MzQgLTAuNDg2LC0wLjM1NCAwLDAiLz48L2c+PGcgY2xpcC1wYXRoPSJ1cmwoI2NsaXBQYXRoMikiIHRyYW5zZm9ybT0idHJhbnNsYXRlKDEyNy4xODg1LDU3Mi4wMjM5KSIgaWQ9Imc4NiI+PHBhdGggaWQ9InBhdGg4OCIgc3R5bGU9ImZpbGw6Izc3Nzg3YjtmaWxsLW9wYWNpdHk6MTtmaWxsLXJ1bGU6bm9uemVybztzdHJva2U6bm9uZSIgZD0ibSAwLDAgYyA0LjI1OCw0LjI0OCAxMS4xNyw0LjI0OCAxNS40MzUsMCAwLjkyOSwtMC45MzIgMS42MzMsLTEuOTk1IDIuMTU4LC0zLjEzOCBIIC0yLjE3NCBDIC0xLjY0OCwtMS45OTUgLTAuOTMxLC0wLjkzMiAwLDAgbSAwLC0xNS40MzggYyAtMi4xMzMsMi4xMzUgLTMuMTk3LDQuOTIzIC0zLjE5Nyw3LjcxOSBoIDI2LjQwNiBjIDAsMS41NDYgLTAuMjM0LDMuMDkxIC0wLjY5OCw0LjU4MSAtMC43MTMsMi4zMjkgLTEuOTkyLDQuNTI4IC0zLjgzOCw2LjM4MSAtNi4wNTIsNi4wNTUgLTE1Ljg2Myw2LjA1NSAtMjEuOTIxLDAgLTYuMDQ4LC02LjA2MyAtNi4wNDgsLTE1Ljg3MyAwLC0yMS45MTggNi4wNTgsLTYuMDU1IDE1Ljg2OSwtNi4wNTUgMjEuOTIxLDAgbCAtMy4yMzgsMy4yMzcgQyAxMS4xNywtMTkuNjk5IDQuMjU4LC0xOS42OTkgMCwtMTUuNDM4Ii8+PC9nPjxnIGNsaXAtcGF0aD0idXJsKCNjbGlwUGF0aDEpIiB0cmFuc2Zvcm09InRyYW5zbGF0ZSgxOTQuMjgzMiw1NzkuODAzNykiIGlkPSJnOTAiPjxwYXRoIGlkPSJwYXRoOTIiIHN0eWxlPSJmaWxsOiMwMDhlYjA7ZmlsbC1vcGFjaXR5OjE7ZmlsbC1ydWxlOm5vbnplcm87c3Ryb2tlOm5vbmUiIGQ9Ik0gMCwwIEMgLTUuNTk1LDAgLTEwLjQ3OSwtMi45NzQgLTEzLjIxMSwtNy40MTYgLTE1LjkzMiwtMi45NzQgLTIwLjgyLDAgLTI2LjQxNSwwIGMgLTMuMTg5LDAgLTYuMTQ4LC0wLjk3MiAtOC42MTQsLTIuNjIzIC0xLjg2LC0xLjI0MiAtMy40MTksLTIuODg1IC00LjU4NCwtNC43OTMgdiAtMjMuMDc1IGggNC41ODQgdiAyMS42NjUgYyAxLjk5OSwyLjU3NiA1LjEwOSw0LjIzNiA4LjYxNCw0LjIzNiA2LjAzLDAgMTAuOTEsLTQuODc5IDEwLjkxLC0xMC45MDkgdiAtMTQuOTkyIGggNC41OTIgdiAxNC45OTIgYyAwLDYuMDMgNC44ODgsMTAuOTA5IDEwLjkxMywxMC45MDkgNi4wMjQsMCAxMC45MDgsLTQuODc5IDEwLjkwOCwtMTAuOTA5IHYgLTE0Ljk5MiBoIDQuNTkxIHYgMTQuOTkyIEMgMTUuNDk5LC02LjkzNiA4LjU1NywwIDAsMCIvPjwvZz48L2c+PGcgaWQ9Imc5NCI+PGcgY2xpcC1wYXRoPSJ1cmwoI2NsaXBQYXRoMTAwKSIgaWQ9Imc5NiI+PGcgaWQ9ImcxMDIiPjxnIGlkPSJnMTA0Ij48cGF0aCBpZD0icGF0aDExMiIgc3R5bGU9ImZpbGw6dXJsKCNyYWRpYWxHcmFkaWVudDExMCk7c3Ryb2tlOm5vbmUiIGQ9Im0gMTE4Ljk3OCw2NjkuMDE5IGMgLTEyLjY5NSwtMTIuNjg5IC0xMi42OTUsLTMzLjI3NiAwLC00NS45NzYgdiAwIGMgOS44MzYsLTkuODI5IDI0LjM5NiwtMTIuMDA4IDM2LjM2MSwtNi42IHYgMCAtMTEuNTI0IGggLTM1LjE5IGwgLTkuNTgxLC05LjU2NyBoIDU0LjMzOCB2IDQyLjY2OCBsIC04LjIxMSwtOC4yMSBoIC0zMS4wMjcgbCAzOS4yNDEsMzkuMjQ0IGMgLTYuMzQzLDYuMzIxIC0xNC42NDgsOS40ODIgLTIyLjk1MSw5LjQ4MyB2IDAgYyAtOC4zMTksMCAtMTYuNjM1LC0zLjE3MiAtMjIuOTgsLTkuNTE4Ii8+PC9nPjwvZz48L2c+PC9nPjxnIGlkPSJnMTE0Ij48ZyBjbGlwLXBhdGg9InVybCgjY2xpcFBhdGgxMjApIiBpZD0iZzExNiI+PGcgaWQ9ImcxMjIiPjxnIGlkPSJnMTI0Ij48cGF0aCBpZD0icGF0aDEzMiIgc3R5bGU9ImZpbGw6dXJsKCNyYWRpYWxHcmFkaWVudDEzMCk7c3Ryb2tlOm5vbmUiIGQ9Im0gMTY0Ljk1Nyw3MTEuNzEzIHYgLTQyLjYxNSBsIDguMTY0LDguMTc0IGggMzEuMDI4IGwgLTM5LjIyNywtMzkuMjI2IGMgMTIuNjk4LC0xMi42OTMgMzMuMjcsLTEyLjY4MiA0NS45NiwwIHYgMCBjIDEyLjY5NywxMi42OTcgMTIuNjk3LDMzLjI4NSAwLDQ1Ljk3NCB2IDAgYyAtOS44MzYsOS44MzIgLTI0LjM5OSwxMi4wMTkgLTM2LjM2Miw2LjYxIHYgMCAxMS41MTcgaCAzNS4yNTcgbCA5LjUxNSw5LjU2NiB6Ii8+PC9nPjwvZz48L2c+PC9nPjwvZz48L3N2Zz4=;" vertex="1" parent="1">
          <mxGeometry x="40" y="260" width="44.32" height="50" as="geometry" />
        </mxCell>
        <mxCell id="8xMMQV7CRU2Fi8QRk28g-99" value="" style="endArrow=none;html=1;rounded=0;" edge="1" parent="1">
          <mxGeometry width="50" height="50" relative="1" as="geometry">
            <mxPoint x="100" y="270" as="sourcePoint" />
            <mxPoint x="460" y="270" as="targetPoint" />
          </mxGeometry>
        </mxCell>
        <mxCell id="8xMMQV7CRU2Fi8QRk28g-100" value="" style="endArrow=none;html=1;rounded=0;" edge="1" parent="1">
          <mxGeometry width="50" height="50" relative="1" as="geometry">
            <mxPoint x="100" y="270" as="sourcePoint" />
            <mxPoint x="100" y="290" as="targetPoint" />
          </mxGeometry>
        </mxCell>
        <mxCell id="8xMMQV7CRU2Fi8QRk28g-101" value="" style="endArrow=none;html=1;rounded=0;" edge="1" parent="1">
          <mxGeometry width="50" height="50" relative="1" as="geometry">
            <mxPoint x="100" y="290" as="sourcePoint" />
            <mxPoint x="460" y="290" as="targetPoint" />
          </mxGeometry>
        </mxCell>
        <mxCell id="8xMMQV7CRU2Fi8QRk28g-102" value="" style="endArrow=none;html=1;rounded=0;" edge="1" parent="1">
          <mxGeometry width="50" height="50" relative="1" as="geometry">
            <mxPoint x="460" y="270" as="sourcePoint" />
            <mxPoint x="460" y="290" as="targetPoint" />
          </mxGeometry>
        </mxCell>
        <mxCell id="8xMMQV7CRU2Fi8QRk28g-103" value="" style="endArrow=none;html=1;rounded=0;" edge="1" parent="1">
          <mxGeometry width="50" height="50" relative="1" as="geometry">
            <mxPoint x="150" y="270" as="sourcePoint" />
            <mxPoint x="150" y="290" as="targetPoint" />
          </mxGeometry>
        </mxCell>
        <mxCell id="8xMMQV7CRU2Fi8QRk28g-104" value="" style="endArrow=classic;html=1;rounded=0;" edge="1" parent="1">
          <mxGeometry width="50" height="50" relative="1" as="geometry">
            <mxPoint x="150" y="280" as="sourcePoint" />
            <mxPoint x="170" y="280" as="targetPoint" />
          </mxGeometry>
        </mxCell>
        <mxCell id="8xMMQV7CRU2Fi8QRk28g-105" value="" style="endArrow=none;html=1;rounded=0;" edge="1" parent="1">
          <mxGeometry width="50" height="50" relative="1" as="geometry">
            <mxPoint x="320" y="270" as="sourcePoint" />
            <mxPoint x="320" y="290" as="targetPoint" />
          </mxGeometry>
        </mxCell>
        <mxCell id="8xMMQV7CRU2Fi8QRk28g-106" value="" style="endArrow=classic;html=1;rounded=0;" edge="1" parent="1">
          <mxGeometry width="50" height="50" relative="1" as="geometry">
            <mxPoint x="320" y="280" as="sourcePoint" />
            <mxPoint x="340" y="280" as="targetPoint" />
          </mxGeometry>
        </mxCell>
        <mxCell id="8xMMQV7CRU2Fi8QRk28g-107" value="" style="endArrow=none;html=1;rounded=0;" edge="1" parent="1">
          <mxGeometry width="50" height="50" relative="1" as="geometry">
            <mxPoint x="390" y="270" as="sourcePoint" />
            <mxPoint x="390" y="290" as="targetPoint" />
          </mxGeometry>
        </mxCell>
        <mxCell id="8xMMQV7CRU2Fi8QRk28g-108" value="" style="endArrow=classic;html=1;rounded=0;" edge="1" parent="1">
          <mxGeometry width="50" height="50" relative="1" as="geometry">
            <mxPoint x="390" y="280" as="sourcePoint" />
            <mxPoint x="410" y="280" as="targetPoint" />
          </mxGeometry>
        </mxCell>
      </root>
    </mxGraphModel>
  </diagram>
</mxfile>
